<?xml version="1.0" encoding="utf-8"?>
<!-- Generator: Adobe Illustrator 27.5.0, SVG Export Plug-In . SVG Version: 6.00 Build 0)  -->
<svg version="1.1" xmlns="http://www.w3.org/2000/svg" xmlns:xlink="http://www.w3.org/1999/xlink" x="0px" y="0px"
	 viewBox="0 0 512 512" style="enable-background:new 0 0 512 512;" xml:space="preserve">
<style type="text/css">
	.st0{fill:#B1B9C6;}
	.st1{fill:#678490;}
	.st2{fill:#91A2B5;}
	.st3{fill:#FFFFFF;}
	.st4{fill:#2D2D2D;}
	.st5{fill:#605C5D;}
	.st6{fill:#777677;}
	.st7{fill:#E3E3E3;}
	.st8{fill:#F7F7F7;}
	.st9{fill:#67838E;}
	.st10{clip-path:url(#SVGID_00000155860678987593831070000013983466450641483683_);}
	.st11{fill:#B6C4CF;}
	.st12{fill:#9FACBA;}
	.st13{fill:#7A8D98;}
	.st14{fill:#596C76;}
	.st15{fill:#FEA713;}
	.st16{fill:#465A61;}
	.st17{fill:#D7E6EF;}
	.st18{fill:#44394A;}
	.st19{fill:#F0A696;}
	.st20{fill:#E08C7E;}
	.st21{font-family:'Kanit-Bold';}
	.st22{font-size:16.9492px;}
	.st23{font-family:'Kanit-Regular';}
	.st24{font-size:12.7119px;}
</style>
<g id="Capa_1">
	<g>
		<path class="st0" d="M274.4,280.5c0.8-8.5-4.4-13.6-4.4-13.6l-38.7,2.2c0,0-11.3,4.2-11.3,15.7c0,0,22.4,11.8,43.8,4.4
			C269.3,286.9,274.4,280.5,274.4,280.5z"/>
		<path class="st1" d="M274.4,281.7c0,0-0.1,0-0.1,0c-0.7-0.1-1.1-0.6-1.1-1.3c0.7-7.8-4-12.6-4-12.7c-0.5-0.5-0.5-1.2,0-1.7
			c0.5-0.5,1.2-0.5,1.7,0c0.2,0.2,5.5,5.7,4.7,14.6C275.5,281.3,275,281.7,274.4,281.7z"/>
		<path class="st1" d="M219.9,286c-0.7,0-1.2-0.5-1.2-1.2c0-5.1,2.1-9.6,6.1-13.1c3-2.6,5.9-3.7,6-3.8c0.6-0.2,1.3,0.1,1.5,0.7
			c0.2,0.6-0.1,1.3-0.7,1.5c0,0-2.7,1-5.4,3.4c-3.5,3.1-5.2,6.8-5.2,11.2C221.1,285.5,220.6,286,219.9,286z"/>
		<g>
			<path class="st0" d="M282.8,209.8c-4.1-4.1-17.3,3.4-23.1,7c-2.9-0.5-6.6-0.7-10.8-0.7c-4.2,0-7.9,0.2-10.8,0.7
				c-5.8-3.7-19-11.2-23.1-7c-4.1,4.1,0.6,15.4,3,20.4c-2.8,4.8-3.9,10.1-3.9,14.6c0,3.9,0.5,7.8,1.4,11.8
				c1.8,7.6,7.9,13.5,15.6,15.1c5.9,1.2,11.9,1.8,17.8,1.8c5.9,0,11.9-0.6,17.8-1.8c7.7-1.6,13.7-7.4,15.6-15.1
				c0.9-3.9,1.4-7.8,1.4-11.8c0-4.5-1-9.8-3.9-14.6C282.2,225.2,286.9,213.9,282.8,209.8z"/>
			<g>
				<path class="st2" d="M253.1,219c0,6.5-1.9,11.7-4.2,11.7c-2.3,0-4.2-5.3-4.2-11.7c0-0.9,0-1.8,0.1-2.6c2.7-0.1,5.5-0.1,8.2,0
					C253,217.2,253.1,218.1,253.1,219z"/>
				<g>
					<path class="st2" d="M244,216.8c0,6.5-1.9,11.7-4.2,11.7c-2.2,0-4.1-4.9-4.2-11.1c1.4-0.4,2.9-0.6,4.5-0.8
						c1.3-0.1,2.6-0.2,3.9-0.3C244,216.6,244,216.7,244,216.8z"/>
					<path class="st2" d="M262.1,217.5c-0.1,6.2-2,11.1-4.2,11.1c-2.3,0-4.2-5.3-4.2-11.7c0-0.1,0-0.3,0-0.4c1.5,0.1,3,0.2,4.5,0.4
						C259.5,216.9,260.8,217.2,262.1,217.5z"/>
				</g>
			</g>
			<path class="st3" d="M277.9,219.8c0,0,0.7,1.5,0.8,3.2c0.1,1.6-0.8,2.8-2.1,3.3c-2.6-3-5.8-5.4-9.5-7.1c0-0.9,0.4-1.7,1.1-2.3
				c2.8-2.5,6.7-5.3,9.4-4.2C282.4,214.7,277.9,219.8,277.9,219.8z"/>
			<path class="st3" d="M219.8,219.8c0,0-0.7,1.5-0.8,3.2c-0.1,1.6,0.8,2.8,2.1,3.3c2.6-3,5.8-5.4,9.5-7.1c0-0.9-0.4-1.7-1.1-2.3
				c-2.8-2.5-6.7-5.3-9.4-4.2C215.3,214.7,219.8,219.8,219.8,219.8z"/>
			<path class="st1" d="M283.6,208.9c-2.2-2.2-6.2-2.1-12.2,0.3c-4.4,1.7-8.9,4.3-12,6.3c-2.8-0.4-6.3-0.6-10.6-0.6
				c-4.3,0-7.8,0.2-10.6,0.6c-8.8-5.5-19.9-10.9-24.2-6.6c-4.4,4.4-0.5,14.9,2.5,21.2c-3.2,5.6-3.7,11.3-3.7,14.7
				c0,4,0.5,8.1,1.4,12c1.9,8.1,8.4,14.3,16.5,16c6,1.2,12.1,1.8,18.1,1.8c6,0,12.1-0.6,18.1-1.8c8.1-1.6,14.6-7.9,16.5-16
				c1-4,1.4-8,1.4-12c0-3.4-0.6-9.1-3.7-14.7C284.1,223.8,288,213.3,283.6,208.9z M281.1,256.3c-1.7,7.2-7.5,12.7-14.7,14.2
				c-5.8,1.2-11.8,1.8-17.6,1.8c-5.8,0-11.8-0.6-17.6-1.8c-7.2-1.5-12.9-7-14.7-14.2c-0.9-3.8-1.4-7.7-1.4-11.5
				c0-4.2,1-12.3,7.4-18.8c0.5-0.5,0.5-1.2,0-1.7c-0.5-0.5-1.2-0.5-1.7,0c-1.1,1.1-2,2.2-2.9,3.4c-3.8-8.4-4.6-14.7-2.3-17.1
				c2.2-2.2,9.5-0.1,19.1,5.7c-1.7,0.5-3.3,1.1-4.8,1.8c-0.6,0.3-0.9,1-0.6,1.6c0.2,0.4,0.6,0.7,1.1,0.7c0.2,0,0.3,0,0.5-0.1
				c1.5-0.7,3.2-1.3,4.9-1.8c2.7-0.8,7.1-1.2,12.9-1.1c5.8,0,10.2,0.4,12.9,1.1c1.7,0.5,3.4,1.1,4.9,1.8c0.6,0.3,1.3,0,1.6-0.6
				c0.3-0.6,0-1.3-0.6-1.6c-1.5-0.7-3.2-1.3-4.9-1.8c9.7-5.7,16.9-7.9,19.1-5.7c2.3,2.3,1.4,8.6-2.3,17.1c-0.8-1.2-1.8-2.3-2.9-3.4
				c-0.5-0.5-1.2-0.5-1.7,0s-0.5,1.2,0,1.7c6.5,6.5,7.4,14.6,7.4,18.8C282.5,248.6,282,252.5,281.1,256.3z"/>
			<g>
				<g>
					<path class="st2" d="M275.5,259.7h-6.2c-0.7,0-1.2-0.5-1.2-1.2s0.5-1.2,1.2-1.2h6.2c0.7,0,1.2,0.5,1.2,1.2
						S276.2,259.7,275.5,259.7z"/>
					<path class="st2" d="M274.4,265.5c-0.1,0-0.3,0-0.4-0.1l-5.1-1.9c-0.6-0.2-0.9-0.9-0.7-1.5c0.2-0.6,0.9-0.9,1.5-0.7l5.1,1.9
						c0.6,0.2,0.9,0.9,0.7,1.5C275.3,265.2,274.9,265.5,274.4,265.5z"/>
				</g>
				<g>
					<path class="st2" d="M232.4,259.7h-6.2c-0.7,0-1.2-0.5-1.2-1.2s0.5-1.2,1.2-1.2h6.2c0.7,0,1.2,0.5,1.2,1.2
						S233,259.7,232.4,259.7z"/>
					<path class="st2" d="M227.3,265.5c-0.5,0-0.9-0.3-1.1-0.8c-0.2-0.6,0.1-1.3,0.7-1.5l5.1-1.9c0.6-0.2,1.3,0.1,1.5,0.7
						c0.2,0.6-0.1,1.3-0.7,1.5l-5.1,1.9C227.6,265.5,227.5,265.5,227.3,265.5z"/>
				</g>
			</g>
			<g>
				<path class="st3" d="M263.1,245.3h-3.2c-0.7,0-1.2-0.5-1.2-1.2s0.5-1.2,1.2-1.2h3.2c0.7,0,1.2,0.5,1.2,1.2
					C264.3,244.8,263.8,245.3,263.1,245.3z"/>
				<path class="st3" d="M241.8,245.3h-3.2c-0.7,0-1.2-0.5-1.2-1.2s0.5-1.2,1.2-1.2h3.2c0.7,0,1.2,0.5,1.2,1.2
					S242.5,245.3,241.8,245.3z"/>
			</g>
			<path class="st4" d="M334.7,342.1c-4.2-9.9-12.1-16.7-20-17.2c-5.9-0.4-11.1,2.7-14.6,8.7c-0.2,0.3-0.6,0.4-1.4,0.4
				c0,0-0.1,0-0.1,0c-9.4,0-46.9-19.9-60.6-41.3c-3-4.7-4.6-9.3-4.8-14c-0.6-9.7,3.1-15.2,6.2-18.1c3.3-3.1,7-4.7,11.1-4.9
				c5.9-0.3,10.1,2.6,11.7,3.9l0.7-0.8c-1.7-1.3-6.2-4.4-12.4-4.1c-4.3,0.2-8.3,2-11.8,5.2c-3.3,3.1-7.1,8.9-6.5,19
				c0.3,5,1.9,9.7,5,14.5c8.5,13.3,24.2,24.1,32.7,29.4c11.7,7.2,23.8,12.4,28.8,12.4c0,0,0.1,0,0.1,0c1.1,0,1.9-0.3,2.3-0.9
				c3.3-5.6,8.2-8.6,13.7-8.2c7.5,0.5,15,7,19.1,16.6c1.7,4.1,2,7.4,0.7,9.8c-3.5,6.8-16.8,7.3-26.4,7.1c-17.2-0.3-25.9-3-34.3-5.7
				c-6.7-2.1-13-4-23.1-4.5c-13.6-0.6-26.1,1.9-39.3,4.6c-8.9,1.8-18,3.6-27.5,4.4c-3,0.3-10.9,0.6-20.1-1.5c-3-0.7-4.4-1.1-6-1.9
				c-7.9-4.3-9.7-15.6-10.1-21.9l0,0c0,0,0,0,0,0l0-8.4c0-0.1-0.1-0.3-0.3-0.3c0-1.8,0.8-2,0.8-2c0.1,0,0.2-0.2,0.2-0.3
				c0-0.1-0.2-0.2-0.3-0.2c0,0-0.6,0.2-1,1c-0.2-0.6-0.6-1.1-1.1-1.5c-0.1-0.1-0.2-0.1-0.3,0c-0.1,0-0.1,0.1-0.1,0.2
				c0,0.1,0.1,0.2,0.1,0.2c0,0,1.1,0.7,1.1,2.6c-0.1,0-0.3,0.1-0.3,0.3l0,8.5l0,0.1c0.4,6.6,2.3,18.2,10.6,22.7c1.8,1,3.4,1.3,6.3,2
				c9.3,2.2,17.4,1.8,20.4,1.6c9.6-0.8,18.7-2.7,27.6-4.5c13.2-2.7,25.6-5.2,39.1-4.6c9.9,0.4,16.1,2.4,22.8,4.4
				c8.5,2.6,17.3,5.4,34.6,5.7c1,0,1.9,0,2.8,0c14.2,0,21.8-2.4,24.6-7.7C336.8,350,336.6,346.4,334.7,342.1z"/>
			<path class="st1" d="M257.7,252.5c-0.6-0.2-1.3,0.2-1.5,0.9c-0.2,0.9-1.1,1.6-2.1,1.6c-1.2,0-2.1-1-2.1-2.1c0,0,0-0.1,0-0.1h0.5
				c0.7,0,1.2-0.5,1.2-1.2c0-0.7-0.5-1.2-1.2-1.2h-3.5c-0.7,0-1.2,0.5-1.2,1.2c0,0.7,0.5,1.2,1.2,1.2h0.5c0,0,0,0.1,0,0.1
				c0,1.2-1,2.1-2.1,2.1c-1,0-1.8-0.7-2.1-1.6c-0.2-0.6-0.8-1-1.5-0.9c-0.6,0.2-1,0.8-0.9,1.5c0.5,2,2.3,3.4,4.4,3.4
				c1.3,0,2.5-0.6,3.3-1.5c0.8,0.9,2,1.5,3.3,1.5c2.1,0,3.9-1.4,4.4-3.4C258.7,253.3,258.3,252.7,257.7,252.5z"/>
			<path class="st5" d="M267.9,252.2H261c-0.7,0-1.2-0.5-1.2-1.2s0.5-1.2,1.2-1.2h6.9c0.7,0,1.2,0.5,1.2,1.2
				S268.5,252.2,267.9,252.2z"/>
			<path class="st5" d="M240.5,252.2h-6.9c-0.7,0-1.2-0.5-1.2-1.2s0.5-1.2,1.2-1.2h6.9c0.7,0,1.2,0.5,1.2,1.2
				C241.7,251.7,241.2,252.2,240.5,252.2z"/>
		</g>
		<g>
			<polygon class="st3" points="283.6,289.6 262.5,279 245.8,286.9 245.8,292.8 232.2,299.3 247.5,312.6 251.8,310.6 260,317.8 
				282.6,307.2 277.3,304.5 283.6,301.6 			"/>
			<path class="st6" d="M262.3,295.9c-0.4,0-0.9-0.2-1.1-0.6c-0.3-0.6-0.1-1.3,0.5-1.6l11-5.7c0.6-0.3,1.3-0.1,1.6,0.5
				c0.3,0.6,0.1,1.3-0.5,1.6l-11,5.7C262.6,295.9,262.4,295.9,262.3,295.9z"/>
			<path class="st6" d="M258.6,293.3c-0.4,0-0.9-0.2-1.1-0.6c-0.3-0.6-0.1-1.3,0.5-1.6l11-5.7c0.6-0.3,1.3-0.1,1.6,0.5
				c0.3,0.6,0.1,1.3-0.5,1.6l-11,5.7C259,293.2,258.8,293.3,258.6,293.3z"/>
			<path class="st6" d="M255.2,290.8c-0.4,0-0.9-0.2-1.1-0.6c-0.3-0.6-0.1-1.3,0.5-1.6l11-5.7c0.6-0.3,1.3-0.1,1.6,0.5
				c0.3,0.6,0.1,1.3-0.5,1.6l-11,5.7C255.6,290.7,255.4,290.8,255.2,290.8z"/>
			<path class="st7" d="M284.1,288.5L263,277.9c-0.3-0.2-0.7-0.2-1.1,0l-16.7,8c-0.4,0.2-0.7,0.6-0.7,1.1v5.1l-12.9,6.2
				c-0.4,0.2-0.6,0.5-0.7,0.9c-0.1,0.4,0.1,0.8,0.4,1.1l15.3,13.3c0.2,0.2,0.5,0.3,0.8,0.3c0.2,0,0.3,0,0.5-0.1l3.6-1.7l7.7,6.7
				c0.2,0.2,0.5,0.3,0.8,0.3c0.2,0,0.3,0,0.5-0.1l22.5-10.6c0.4-0.2,0.7-0.6,0.7-1.1c0-0.5-0.3-0.9-0.7-1.1l-3-1.5l4-1.9
				c0.4-0.2,0.7-0.6,0.7-1.1v-12C284.8,289.2,284.5,288.7,284.1,288.5z M262.5,280.3l18.4,9.3l-19.6,9.3L248,287.2L262.5,280.3z
				 M247,289.6l12.9,11.2v1.2l-7.5-6.5c-0.4-0.4-1-0.3-1.4,0.1c-0.4,0.4-0.3,1,0.1,1.4l8.8,7.7v1.5l-5.3-4.6c-0.4-0.4-1-0.3-1.4,0.1
				c-0.4,0.4-0.3,1,0.1,1.4l6.6,5.8v0.9L247,298.3L247,289.6L247,289.6z M247.7,311.2l-13.3-11.6l10.2-4.9v4.2
				c0,0.3,0.2,0.7,0.4,0.9l2.4,2.1l-3.2,1.5c-0.4,0.2-0.6,0.5-0.7,0.9c-0.1,0.4,0.1,0.8,0.4,1.1l5.6,4.9L247.7,311.2z M260.2,316.4
				l-13.3-11.6l2.4-1.2l10.9,9.5c0.2,0.2,0.5,0.3,0.8,0.3c0.2,0,0.3,0,0.5-0.1l15.7-7.4l2.5,1.3L260.2,316.4z M282.4,300.8
				l-20.1,9.5v-1.4l13.3-6.3c0.5-0.2,0.7-0.8,0.5-1.3c-0.2-0.5-0.8-0.7-1.3-0.5l-12.5,5.9v-1.9l10-4.7c0.5-0.2,0.7-0.8,0.5-1.3
				c-0.2-0.5-0.8-0.7-1.3-0.5l-9.1,4.3V301l20.1-9.5V300.8z"/>
		</g>
		<g>
			<path class="st0" d="M266.4,277.3c-2.7,2.8-2.7,7.2,0.1,10c2.8,2.7,7.2,2.7,10-0.1c2.7-2.8,1.4-5.9-1.4-8.7
				C272.3,275.7,269.2,274.5,266.4,277.3z"/>
			<path class="st1" d="M271.5,290.4c-2.1,0-4.2-0.8-5.8-2.3c-1.6-1.5-2.5-3.6-2.5-5.8c0-2.2,0.8-4.3,2.3-5.9
				c2.9-2.9,6.6-2.5,10.4,1.2c3.7,3.7,4.3,7.4,1.4,10.4C275.8,289.6,273.6,290.4,271.5,290.4z M269.8,276.9c-1.3,0-2.1,0.8-2.5,1.2
				l0,0c-1.1,1.1-1.7,2.6-1.7,4.1c0,1.6,0.6,3,1.8,4.1c2.3,2.2,6,2.2,8.3-0.1c2.8-2.9-0.3-6-1.4-7
				C272.4,277.4,270.9,276.9,269.8,276.9z M266.4,277.3L266.4,277.3L266.4,277.3z"/>
		</g>
	</g>
	<g>
		<g>
			<g>
				<rect x="187.9" y="285" class="st8" width="120.1" height="74.9"/>
				<path class="st9" d="M262.8,360.3v2.7H235v-2.7h-59.2v1.1c0,1.7,0.6,3.4,1.8,4.7c1.2,1.2,2.8,1.9,4.4,1.9h133.7
					c1.6,0,3.2-0.6,4.4-1.9c1.2-1.2,1.8-3,1.8-4.7v-1.1H262.8z"/>
				<path class="st9" d="M189.5,364.2h118.7c1.1,0,2.2-0.5,3-1.2s1.2-1.9,1.2-3v-75.8c0-1.1-0.5-2.2-1.2-3c-0.8-0.8-1.9-1.2-3-1.2
					H189.5c-1.1,0-2.2,0.5-3,1.2c-0.8,0.8-1.2,1.9-1.2,3v75.8c0,1.1,0.5,2.2,1.2,3C187.5,363.8,188.4,364.2,189.5,364.2z
					 M248.9,281.8c0.8,0,1.4,0.6,1.4,1.4c0,0.8-0.6,1.4-1.4,1.4s-1.4-0.6-1.4-1.4C247.5,282.4,248.1,281.8,248.9,281.8z M192,286.5
					h113.9v71.1H192V286.5z"/>
			</g>
		</g>
	</g>
	<g id="g186" transform="matrix(1.3333333,0,0,-1.3333333,0,682.66667)">
		<g id="g188">
			<g>
				<defs>
					
						<rect id="SVGID_1_" x="185" y="302.3" transform="matrix(0.7071 -0.7071 0.7071 0.7071 -163.9449 229.9076)" width="21.1" height="21.1"/>
				</defs>
				<clipPath id="SVGID_00000157268410700490730350000002219560326657640582_">
					<use xlink:href="#SVGID_1_"  style="overflow:visible;"/>
				</clipPath>
				<g id="g190" style="clip-path:url(#SVGID_00000157268410700490730350000002219560326657640582_);">
					<g id="g196" transform="translate(79.1338,395.2979)">
						<path id="path198" class="st11" d="M123.3-81.6l0.7,0.7l2.2-2.2c0.2-0.2,0.2-0.5,0-0.7s-0.5-0.2-0.7,0L123.3-81.6z"/>
					</g>
					<g id="g200" transform="translate(63.645,512)">
						<path id="path202" class="st12" d="M141.7-200.5L141.7-200.5c0.1,0.1,0.1,0.2,0.1,0.3c-0.1,0-0.3,0-0.4,0.1l-2.2,2.2l-0.4-0.4
							l2.2-2.2C141.2-200.7,141.5-200.7,141.7-200.5"/>
					</g>
					<g id="g204" transform="translate(178.6519,395.2979)">
						<path id="path206" class="st11" d="M21.6-83.8l0.7,0.7l2.2-2.2c0.2-0.2,0.2-0.5,0-0.7s-0.5-0.2-0.7,0L21.6-83.8z"/>
					</g>
					<g id="g208" transform="translate(163.1631,512)">
						<path id="path210" class="st12" d="M40-202.7c0.1,0.1,0.1,0.2,0.1,0.3c-0.1,0-0.3,0-0.4,0.1l-2.2,2.2l-0.4-0.4l2.2-2.2
							C39.5-202.9,39.8-202.9,40-202.7"/>
					</g>
					<g id="g216" transform="translate(118.0928,168.3252)">
						<path id="path218" class="st13" d="M78.6,149.5l0.2,0.2c0.3,0.3,0.8,0.3,1.2,0l1.7-1.7l-1.4-1.4l-1.7,1.7
							C78.2,148.6,78.2,149.1,78.6,149.5"/>
					</g>
					<g id="g220" transform="translate(115.6538,274.4287)">
						<path id="path222" class="st14" d="M83.4,41.1l-1.7,1.7c-0.2,0.2-0.3,0.6-0.2,0.9c-0.1,0-0.2-0.1-0.3-0.2L81,43.4
							c-0.3-0.3-0.3-0.8,0-1.2l1.7-1.7L83.4,41.1z"/>
					</g>
					<g id="g224" transform="translate(113.4043,211.0024)">
						<path id="path226" class="st14" d="M84.3,105.9L84.3,105.9c1.1,1.1,2.8,1.1,3.8,0l2.1-2.1l-3.8-3.8l-2.1,2.1
							C83.2,103.2,83.2,104.9,84.3,105.9"/>
					</g>
					<g id="g228" transform="translate(98.9404,239.6294)">
						<path id="path230" class="st15" d="M99.7,77c0,0,0.1,0.1,0.1,0.1c0.1,0,0.3,0,0.3-0.2l0.3-1.2l0.3,0.3
							c0.1,0.1,0.2,0.1,0.2,0.1c0.1,0,0.1-0.1,0.2-0.2l0.4-1.6c0-0.1-0.1-0.3-0.2-0.3c-0.1,0-0.3,0.1-0.3,0.2l-0.3,1.2l-0.3-0.3
							c-0.1-0.1-0.2-0.1-0.2-0.1c-0.1,0-0.1,0.1-0.2,0.2l-0.4,1.7C99.6,76.9,99.6,77,99.7,77"/>
					</g>
					<g id="g240" transform="translate(171.9033,395.2979)">
						<path id="path242" class="st16" d="M28.5-83.7l-2.1,2.1c-1,1-1,2.4-0.3,3.5c-0.1-0.1-0.2-0.2-0.3-0.3c-1.1-1.1-1.1-2.8,0-3.8
							l2.1-2.1L28.5-83.7z"/>
					</g>
					<g id="g244" transform="translate(194.4619,370.5156)">
						<path id="path246" class="st13" d="M4.9-58.8l3.5,3.5c0.3,0.3,0.8,0.3,1.1,0c0.3-0.3,0.3-0.8,0-1.1L6-59.9
							c-0.3-0.3-0.8-0.3-1.1,0C4.6-59.6,4.6-59.1,4.9-58.8"/>
					</g>
					<g id="g248" transform="translate(194.4619,420.0796)">
						<path id="path250" class="st14" d="M6-109.5l0.6,0.6c-0.3-0.3-0.8-0.3-1.1,0c-0.3,0.3-0.3,0.8,0,1.1l-0.6-0.6
							c-0.3-0.3-0.3-0.8,0-1.1C5.2-109.8,5.7-109.8,6-109.5"/>
					</g>
				</g>
			</g>
		</g>
	</g>
	<g>
		<path class="st17" d="M201,348c0,2.2,1.4,4,3.1,4h89.8c1.7,0,3.1-1.8,3.1-4v-47.9h-96V348z"/>
		<path class="st18" d="M293.9,292h-89.8c-1.7,0-3.1,1.4-3.1,3.1v5h96v-5C297,293.4,295.6,292,293.9,292z"/>
		<g>
			<circle class="st19" cx="208.6" cy="296.1" r="1.6"/>
			<circle class="st19" cx="214.2" cy="296.1" r="1.6"/>
			<circle class="st19" cx="219.9" cy="296.1" r="1.6"/>
		</g>
		<path class="st20" d="M209.1,294.6c0.1,0.2,0.1,0.3,0.1,0.5c0,0.9-0.7,1.6-1.6,1.6c-0.2,0-0.3,0-0.5-0.1c0.2,0.6,0.8,1.1,1.5,1.1
			c0.9,0,1.6-0.7,1.6-1.6C210.1,295.4,209.7,294.8,209.1,294.6z"/>
		<path class="st20" d="M214.7,294.6c0.1,0.2,0.1,0.3,0.1,0.5c0,0.9-0.7,1.6-1.6,1.6c-0.2,0-0.3,0-0.5-0.1c0.2,0.6,0.8,1.1,1.5,1.1
			c0.9,0,1.6-0.7,1.6-1.6C215.8,295.4,215.3,294.8,214.7,294.6z"/>
		<path class="st20" d="M220.4,294.6c0.1,0.2,0.1,0.3,0.1,0.5c0,0.9-0.7,1.6-1.6,1.6c-0.2,0-0.3,0-0.5-0.1c0.2,0.6,0.8,1.1,1.5,1.1
			c0.9,0,1.6-0.7,1.6-1.6C221.4,295.4,221,294.8,220.4,294.6z"/>
	</g>
	<text transform="matrix(1.0387 0 0 1 233.3276 324.876)"><tspan x="0" y="0" class="st18 st21 st22">404</tspan><tspan x="-4.6" y="15.3" class="st18 st23 st24">ERROR</tspan></text>
</g>
</svg>
