<?xml version="1.0" encoding="utf-8"?>
<!-- Generator: Adobe Illustrator 26.0.2, SVG Export Plug-In . SVG Version: 6.00 Build 0)  -->
<svg version="1.1" xmlns="http://www.w3.org/2000/svg" xmlns:xlink="http://www.w3.org/1999/xlink" x="0px" y="0px"
	 viewBox="0 0 512 512" style="enable-background:new 0 0 512 512;" xml:space="preserve">
<style type="text/css">
	.st0{fill:#1D1D1F;}
	.st1{enable-background:new    ;}
	.st2{fill:#2E2E30;}
	.st3{fill:#3E3D43;}
	.st4{fill:#57565C;}
	.st5{fill:#77767E;}
	.st6{display:none;enable-background:new    ;}
	.st7{display:inline;fill:#30499E;}
	.st8{display:inline;fill:#CD2A01;}
	.st9{display:inline;fill:#E14931;}
	.st10{display:inline;fill:#F18700;}
	.st11{display:inline;fill:#F18330;}
	.st12{display:inline;fill:#6F2C93;}
	.st13{display:inline;fill:#733894;}
	.st14{display:inline;fill:#FECE00;}
	.st15{display:inline;fill:#FCB52E;}
	.st16{display:inline;fill:#008778;}
	.st17{display:inline;fill:#088764;}
	.st18{display:inline;fill:#1D81CD;}
	.st19{display:inline;fill:#4577BA;}
	.st20{display:inline;fill:#4DBA69;}
	.st21{display:inline;fill:#5AB455;}
	.st22{display:inline;fill:#013F8A;}
</style>
<g id="Layer_1">
	<path class="st0" d="M417,119.2L210.2,6.1c-13.1-7.1-24.9-7.8-33.5-3.1l-58.4,32.2h0.1c-8.5,4.5-13.8,14.5-13.8,28.6l-0.7,225.1
		c-0.1,28.2,20.9,62.7,46.9,76.9l206.9,113.1c13.4,7.4,25.6,7.9,34.2,2.7c-0.2,0.2-0.5,0.3-0.7,0.5l58.4-32.1
		c8.4-4.6,13.7-14.5,13.7-28.6l0.7-225.1C464,167.8,443,133.5,417,119.2z"/>
	<g class="st1">
		<path class="st2" d="M449.5,449.8l-58.4,32.1c8.4-4.6,13.7-14.5,13.7-28.6l58.4-32.1C463.2,435.3,457.9,445.2,449.5,449.8z"/>
		<g>
			<path class="st3" d="M118.3,35.1L176.7,3c8.5-4.7,20.4-4.1,33.5,3.1l-58.4,32.1C138.7,31.1,126.9,30.4,118.3,35.1z"/>
			<polygon class="st3" points="405.5,228.3 463.9,196.2 463.2,421.3 404.8,453.4 			"/>
		</g>
		<polygon class="st4" points="151.8,38.3 210.2,6.1 417,119.2 358.6,151.4 		"/>
		<path class="st5" d="M358.6,151.4l58.4-32.1c26,14.2,46.9,48.6,46.9,76.9l-58.4,32.1C405.6,199.9,384.6,165.6,358.6,151.4z"/>
	</g>
	<g class="st6">
		<path class="st7" d="M347.4,325.7l-41.3,22.4C313.6,344,334.5,332.7,347.4,325.7 M269.6,276.5c-4.6-0.5-9-0.9-10.3-1L269.6,276.5
			 M317.9,297.9c11.6,6.3,24.9,13.6,32.9,18C341.9,311,328.2,303.6,317.9,297.9 M145,203.4c7.4,4.1,17.1,9.4,26,14.3
			c8.5,4.6,16.4,9,21,11.5C176.6,220.6,153,207.7,145,203.4 M252.9,235.6c1.6,5.1,3.5,11.5,4.8,15.9L252.9,235.6 M195.4,173.3
			c-1.2,0.7-3.4,1.8-6.2,3.3C191.4,175.5,194,174.1,195.4,173.3 M250.5,149c-0.1,10.7-0.1,27.6-0.1,39.5L250.5,149 M252,145.9
			l49.1,80.6C289.4,207.3,259,157.3,252,145.9"/>
		<polyline class="st8" points="250.6,143.6 250.4,202 250.3,227.2 259.1,256.1 281.7,243.9 304.2,231.7 250.6,143.6 		"/>
		<path class="st9" d="M259.1,256.1L259.1,256.1L259.1,256.1L259.1,256.1 M250.4,202l-0.1,25.2l0,0l2.5,8.3l4.8,15.9l1.4,4.5l0,0
			l0,0l-8.8-28.9L250.4,202 M250.5,143.5v5.4l-0.1,39.5V202l0,0L250.5,143.5l53.7,88.2l-22.6,12.2l22.6-12.2l0,0l-3.1-5.1L252,145.9
			L250.5,143.5L250.5,143.5"/>
		<polyline class="st10" points="250.4,202.1 196.4,172.6 196.5,172.8 241.5,246.2 250.3,227.2 250.4,202.1 		"/>
		<path class="st11" d="M241.5,246.3L241.5,246.3L241.5,246.3L241.5,246.3L241.5,246.3 M250.4,202L250.4,202l-54.1-29.6l0.2,0.3l0,0
			l0,0l0,0l-0.1-0.2L250.4,202l-0.1,25.1l-8.8,19l-44.9-73.4l45,73.5l8.8-19l0,0L250.4,202"/>
		<path class="st12" d="M304.4,231.7h-0.1l-45.1,24.4l21.8,21.6l23.2,12.7C304.2,271.3,304.4,233.1,304.4,231.7"/>
		<path class="st13" d="M304.4,231.7l-0.2,0.1l0,0L281.6,244L259,256.2l0,0l0,0l0,0l0,0l0,0l21.8,21.5l0,0l0,0L259,256.1l45.1-24.4
			L304.4,231.7c0,1.4-0.2,39.6-0.2,58.7l0,0l0,0C304.3,271,304.4,232.1,304.4,231.7L304.4,231.7"/>
		<path class="st14" d="M196.5,172.9c-0.3,0.2-6.1,3.3-9,4.7c-14.7,7.9-44.1,23.6-45.2,24.2c1.4,0.8,36.4,19.9,53.9,29.6
			c7.6,4.2,23,12.6,23.2,12.7l22.1,2.2L196.5,172.9"/>
		<path class="st15" d="M196.5,172.8L196.5,172.8L196.5,172.8c-0.1,0.1-0.5,0.3-1.1,0.6c-1.4,0.8-4.1,2.2-6.2,3.3
			c-0.6,0.3-1.2,0.7-1.7,0.9c-14.9,8-44.9,24.1-45.2,24.2l0,0l0,0c0.1,0,1.1,0.6,2.8,1.5c8,4.4,31.6,17.3,47,25.8
			c1.5,0.9,2.9,1.6,4.2,2.3l0,0l0,0l0,0c-17.5-9.7-52.5-28.8-53.9-29.6c1.1-0.6,30.5-16.4,45.2-24.2
			C190.4,176.2,196.2,172.9,196.5,172.8l44.9,73.4l-22.1-2.2l0,0l0,0l22.1,2.2l0,0l0,0l0,0l0,0L196.5,172.8L196.5,172.8"/>
		<path class="st16" d="M196.2,231.4c-0.1,18.9-0.2,57-0.2,58.4l44.7-24l0.5-0.3l-21.8-21.5C219.1,243.9,203.8,235.6,196.2,231.4"/>
		<path class="st17" d="M196,289.8L196,289.8L196,289.8L196,289.8 M241.2,265.6L241.2,265.6L241.2,265.6L241.2,265.6L241.2,265.6
			 M196.2,231.3L196.2,231.3L196.2,231.3L196.2,231.3c-0.2,19.2-0.2,58-0.2,58.5l0,0l44.8-24.1L196,289.8
			C196,288.3,196.1,250.3,196.2,231.3c7.6,4.2,22.9,12.6,23.2,12.8l21.8,21.5l0,0l-21.8-21.5l0,0l0,0
			C219.2,244,203.8,235.5,196.2,231.3"/>
		<path class="st18" d="M304.2,290.4L281,277.7l-22.1-2.3l45.1,73.7l54.1-29.3C356.7,319.2,321.7,300.1,304.2,290.4"/>
		<path class="st19" d="M304,349.1L304,349.1L304,349.1L304,349.1 M258.9,275.4L258.9,275.4L258.9,275.4L258.9,275.4 M304.2,290.4
			L304.2,290.4L281,277.7l0,0l0,0l-11.4-1.1l-10.3-1h-0.4l0,0l0,0l22.1,2.3L304.2,290.4c17.5,9.7,52.4,28.8,53.8,29.6l-54.1,29.3
			l0,0l2.1-1.1l41.3-22.4l10.7-5.8l0,0l0,0c-0.1-0.1-2.9-1.6-7.3-4c-8-4.4-21.3-11.6-32.9-18C312.9,295.1,308.1,292.6,304.2,290.4
			L304.2,290.4"/>
		<polyline class="st20" points="241.2,265.6 196,289.9 249.7,378 250,319.7 250.1,294.6 241.2,265.6 		"/>
		<polyline class="st21" points="241.2,265.6 241.2,265.6 241.2,265.6 240.7,265.9 196,289.8 196,289.8 195.9,289.8 196,289.8 
			196,289.9 249.7,378 249.7,378.1 250,319.7 250,319.7 250,319.7 249.7,378 196,289.9 241.2,265.6 250.1,294.6 250.1,294.6 
			250.1,294.5 241.3,265.6 241.3,265.6 241.2,265.6 241.2,265.6 		"/>
		<polyline class="st22" points="258.9,275.5 250.1,294.6 250,319.7 303.9,349.1 258.9,275.5 		"/>
		<path class="st7" d="M250,319.7l0.1-25.1l8.8-19l45,73.6L250,319.7 M258.9,275.4L258.9,275.4L258.9,275.4l-8.8,19l0,0l0,0
			l-0.1,25.1l0,0l0,0l54,29.6l0,0l0,0l0,0l0,0L258.9,275.4L258.9,275.4L258.9,275.4L258.9,275.4"/>
	</g>
</g>
<g id="Calque_2">
</g>
</svg>
