<?xml version="1.0" encoding="utf-8"?>
<!-- Generator: Adobe Illustrator 26.0.2, SVG Export Plug-In . SVG Version: 6.00 Build 0)  -->
<svg version="1.1" id="Layer_1" xmlns="http://www.w3.org/2000/svg" xmlns:xlink="http://www.w3.org/1999/xlink" x="0px" y="0px"
	 viewBox="0 0 512 512" style="enable-background:new 0 0 512 512;" xml:space="preserve">
<style type="text/css">
	.st0{fill:#1D1D1F;}
	.st1{enable-background:new    ;}
	.st2{fill:#2E2E30;}
	.st3{fill:#3E3D43;}
	.st4{fill:#57565C;}
	.st5{fill:#77767E;}
	.st6{display:none;enable-background:new    ;}
	.st7{display:inline;fill:#30499E;}
	.st8{display:inline;fill:#CD2A01;}
	.st9{display:inline;fill:#E14931;}
	.st10{display:inline;fill:#F18700;}
	.st11{display:inline;fill:#F18330;}
	.st12{display:inline;fill:#6F2C93;}
	.st13{display:inline;fill:#733894;}
	.st14{display:inline;fill:#FECE00;}
	.st15{display:inline;fill:#FCB52E;}
	.st16{display:inline;fill:#008778;}
	.st17{display:inline;fill:#088764;}
	.st18{display:inline;fill:#1D81CD;}
	.st19{display:inline;fill:#4577BA;}
	.st20{display:inline;fill:#4DBA69;}
	.st21{display:inline;fill:#5AB455;}
	.st22{display:inline;fill:#013F8A;}
	.st23{fill:#1C769B;}
	.st24{fill:#2795B7;}
	.st25{fill:#3FB5D1;}
</style>
<path class="st0" d="M389.1,125.9L182.3,6.4c-13.1-7.5-24.9-8.2-33.5-3.3L90.4,37.1c0,0,0.1,0,0.1,0C82,41.9,76.7,52.4,76.7,67.3
	L76,305c-0.1,29.8,20.9,66.2,46.9,81.2l206.9,119.4c13.4,7.8,25.6,8.3,34.2,2.8c-0.2,0.2-0.5,0.3-0.7,0.5l58.4-33.9
	c8.4-4.9,13.7-15.3,13.7-30.2l0.7-237.7C436.1,177.2,415.1,140.9,389.1,125.9z"/>
<g class="st1">
	<path class="st2" d="M421.6,474.9l-58.4,33.9c8.4-4.9,13.7-15.3,13.7-30.2l58.4-33.9C435.3,459.6,430,470,421.6,474.9z"/>
	<g>
		<path class="st3" d="M90.4,37.1l58.4-33.9c8.5-5,20.4-4.3,33.5,3.3l-58.4,33.9C110.8,32.8,99,32.1,90.4,37.1z"/>
		<polygon class="st3" points="377.6,241 436,207.1 435.3,444.8 376.9,478.7 		"/>
	</g>
	<polygon class="st4" points="123.9,40.4 182.3,6.4 389.1,125.9 330.7,159.8 	"/>
	<path class="st5" d="M330.7,159.8l58.4-33.9c26,15,46.9,51.3,46.9,81.2L377.6,241C377.7,211.1,356.7,174.8,330.7,159.8z"/>
</g>
<g class="st6">
	<path class="st7" d="M319.5,343.9l-41.3,23.6C285.7,363.2,306.6,351.3,319.5,343.9 M241.7,291.9c-4.6-0.5-9-1-10.3-1.1L241.7,291.9
		 M290,314.5c11.6,6.7,24.9,14.4,32.9,19C314,328.4,300.3,320.5,290,314.5 M117.1,214.7c7.4,4.3,17.1,9.9,26,15.1
		c8.5,4.9,16.4,9.5,21,12.1C148.7,232.9,125.1,219.3,117.1,214.7 M225,248.8c1.6,5.4,3.5,12.1,4.8,16.8L225,248.8 M167.5,183
		c-1.2,0.7-3.4,1.9-6.2,3.5C163.5,185.3,166.1,183.8,167.5,183 M222.6,157.3c-0.1,11.3-0.1,29.1-0.1,41.7L222.6,157.3 M224.1,154
		l49.1,85.1C261.5,218.9,231.1,166.1,224.1,154"/>
	<polyline class="st8" points="222.7,151.6 222.5,213.3 222.4,239.9 231.2,270.4 253.8,257.5 276.3,244.6 222.7,151.6 	"/>
	<path class="st9" d="M231.2,270.4L231.2,270.4L231.2,270.4L231.2,270.4 M222.5,213.3l-0.1,26.6l0,0l2.5,8.8l4.8,16.8l1.4,4.8l0,0
		l0,0l-8.8-30.5L222.5,213.3 M222.6,151.5l0,5.7l-0.1,41.7l0,14.4l0,0l0.2-61.7l53.6,93l-22.6,12.9l22.6-12.9l0,0l-3.1-5.4
		L224.1,154L222.6,151.5L222.6,151.5"/>
	<polyline class="st10" points="222.5,213.4 168.5,182.2 168.6,182.4 213.6,259.9 222.4,239.9 222.5,213.4 	"/>
	<path class="st11" d="M213.6,260L213.6,260L213.6,260L213.6,260L213.6,260 M222.5,213.3L222.5,213.3l-54.1-31.2l0.2,0.3
		c0,0,0,0,0,0l0,0l0,0l-0.1-0.2L222.5,213.3l-0.1,26.5l-8.8,20.1l-44.9-77.5l45,77.6l8.8-20.1l0,0L222.5,213.3"/>
	<path class="st12" d="M276.5,244.6l-0.1,0l-45.1,25.8l21.8,22.8l23.2,13.4C276.3,286.4,276.5,246.1,276.5,244.6"/>
	<path class="st13" d="M276.5,244.6l-0.2,0.1l0,0l-22.6,12.9l-22.6,12.9l0,0l0,0l0,0l0,0l0,0l21.8,22.7l0,0l0,0l-21.8-22.8
		l45.1-25.8L276.5,244.6c0,1.5-0.2,41.8-0.2,62l0,0c0,0,0,0,0,0C276.4,286.1,276.5,245,276.5,244.6L276.5,244.6"/>
	<path class="st14" d="M168.6,182.5c-0.3,0.2-6.1,3.5-9,5c-14.7,8.3-44.1,24.9-45.2,25.6c1.4,0.8,36.4,21,53.9,31.2
		c7.6,4.4,23,13.3,23.2,13.4l22.1,2.3L168.6,182.5"/>
	<path class="st15" d="M168.6,182.4L168.6,182.4C168.6,182.4,168.6,182.4,168.6,182.4c-0.1,0.1-0.5,0.3-1.1,0.6
		c-1.4,0.8-4.1,2.3-6.2,3.5c-0.6,0.3-1.2,0.7-1.7,0.9c-14.9,8.4-44.9,25.4-45.2,25.6l0,0l0,0c0.1,0,1.1,0.6,2.8,1.6
		c8,4.6,31.6,18.3,47,27.2c1.5,0.9,2.9,1.7,4.2,2.4c0,0,0,0,0,0v0l0,0c-17.5-10.2-52.5-30.4-53.9-31.2c1.1-0.6,30.5-17.3,45.2-25.6
		C162.5,186,168.3,182.6,168.6,182.4l44.9,77.5l-22.1-2.3l0,0l0,0l22.1,2.3l0,0l0,0l0,0l0,0L168.6,182.4L168.6,182.4"/>
	<path class="st16" d="M168.3,244.3c-0.1,20-0.2,60.2-0.2,61.7l44.7-25.3l0.5-0.3l-21.8-22.7C191.2,257.5,175.9,248.7,168.3,244.3"
		/>
	<path class="st17" d="M168.1,306L168.1,306L168.1,306L168.1,306 M213.3,280.4L213.3,280.4L213.3,280.4L213.3,280.4L213.3,280.4
		 M168.3,244.2L168.3,244.2L168.3,244.2C168.3,244.2,168.3,244.2,168.3,244.2c-0.2,20.3-0.2,61.2-0.2,61.8h0l44.8-25.4L168.1,306
		C168.1,304.4,168.2,264.3,168.3,244.2c7.6,4.4,22.9,13.3,23.2,13.5l21.8,22.7l0,0l-21.8-22.7l0,0l0,0
		C191.3,257.6,175.9,248.6,168.3,244.2"/>
	<path class="st18" d="M276.3,306.6l-23.2-13.4l-22.1-2.4l45.1,77.8l54.1-30.9C328.8,337,293.8,316.8,276.3,306.6"/>
	<path class="st19" d="M276.1,368.6L276.1,368.6L276.1,368.6L276.1,368.6 M231,290.8L231,290.8L231,290.8L231,290.8 M276.3,306.6
		L276.3,306.6l-23.2-13.4l0,0l0,0l-11.4-1.2l-10.3-1.1l-0.4,0l0,0l0,0l22.1,2.4L276.3,306.6c17.5,10.2,52.4,30.4,53.8,31.2
		l-54.1,30.9l0,0l2.1-1.2l41.3-23.6l10.7-6.1l0,0l0,0c-0.1-0.1-2.9-1.7-7.3-4.2c-8-4.6-21.3-12.3-32.9-19
		C285,311.6,280.2,308.9,276.3,306.6C276.3,306.6,276.3,306.6,276.3,306.6"/>
	<polyline class="st20" points="213.3,280.4 168.1,306.1 221.8,399.1 222.1,337.5 222.2,311 213.3,280.4 	"/>
	<polyline class="st21" points="213.3,280.4 213.3,280.4 213.3,280.4 212.8,280.7 168.1,306 168.1,306 168,306 168.1,306 
		168.1,306.1 221.8,399.1 221.8,399.2 222.1,337.5 222.1,337.5 222.1,337.5 221.8,399.1 168.1,306.1 213.3,280.4 222.2,311 
		222.2,311 222.2,310.9 213.4,280.4 213.4,280.4 213.3,280.4 213.3,280.4 	"/>
	<polyline class="st22" points="231,290.9 222.2,311 222.1,337.5 276,368.6 231,290.9 	"/>
	<path class="st7" d="M222.1,337.5l0.1-26.5l8.8-20.1l45,77.7L222.1,337.5 M231,290.8L231,290.8L231,290.8l-8.8,20.1l0,0v0
		l-0.1,26.5v0l0,0l54,31.2l0,0l0,0l0,0l0,0L231,290.8L231,290.8L231,290.8L231,290.8"/>
</g>
<g>
	<g>
		<path class="st23" d="M118.1,219.6c-1.1,42.4,19.7,93,52.5,131.5L127,181.2C121.7,191.5,118.5,204.3,118.1,219.6z"/>
		<path class="st23" d="M217.5,282.7l-31.1,85.2c9.4,8.9,19.5,16.9,30.1,23.4c12.8,7.8,25.2,12.9,36.8,15.4
			c-0.3-0.7-0.6-1.5-0.8-2.3L217.5,282.7z"/>
		<path class="st23" d="M289.3,304.9c-0.5-15-5.8-27.8-10.3-37.9c-5.9-12.5-11.4-23.3-11.6-32.8c-0.3-10.5,7.1-16.6,17.9-11.4
			c0.5,0.2,1,0.5,1.4,0.8c-20-27.7-45.3-50.3-71.9-62.6c-34.3-15.8-63.4-10.8-80.4,9.1c2.1,1.1,4.2,2.2,5.9,3c9.7,4.8,25,11,25,11
			c5.2,2.2,5.7,10.9,0.5,9c0,0-5.2-1.9-10.9-4.4l35,140.1l22.5-63.6l-16-55.8c-5.4-3-10.4-6.2-10.4-6.2c-5.3-3-4.6-11.5,0.7-8.6
			c0,0,16.4,9.4,26.3,14.3c10.7,5.3,27.6,12.2,27.6,12.2c5.7,2.4,6.5,11.8,0.8,9.6c0,0-5.7-2.1-12-4.9l41.9,149.3l10.4-35.2
			C286.2,325.5,289.6,315.3,289.3,304.9z"/>
		<path class="st23" d="M312.1,277.8c0.5,12.3-1.2,25.1-7.2,39.2l-32.2,91.4c34.5-1.6,57.1-29.7,55.1-76.9
			c-1-21.8-7.1-44.6-16.9-66.4C311.5,269.1,311.9,273.3,312.1,277.8z"/>
	</g>
	<path class="st24" d="M267.4,234.2c-0.3-10.5,7.1-16.6,17.9-11.4c0.5,0.2,1,0.5,1.4,0.8c-20-27.7-45.3-50.3-71.9-62.6
		c-34.3-15.8-63.4-10.8-80.4,9.1c2.1,1.1,4.2,2.2,5.9,3c9.7,4.8,25,11,25,11c5.2,2.2,5.7,10.9,0.5,9c0,0-5.2-1.9-10.9-4.4l12.8,51.3
		c9.3,8.6,19.4,16.1,30.3,21.8c4.5,2.4,9,4.5,13.5,6.1l1-2.7l-16-55.8c-5.4-3-10.4-6.2-10.4-6.2c-5.3-3-4.6-11.5,0.7-8.6
		c0,0,16.4,9.4,26.3,14.3c10.7,5.3,27.6,12.2,27.6,12.2c5.7,2.4,6.5,11.8,0.8,9.6c0,0-5.7-2.1-12-4.9l13.3,47.5
		c13.1-0.8,24.2-5.8,32.3-14.6C270.9,249.6,267.6,241.5,267.4,234.2z"/>
	<path class="st25" d="M214.8,161c-30.8-14.2-57.5-11.6-74.8,3.5c14.9,10.8,31.7,20.9,49.7,29.8c35.5,17.4,69.1,26.4,95.1,26.7
		C265.1,194.4,240.6,172.8,214.8,161z"/>
</g>
</svg>
