<svg fill="#D4D4D4" id="Layer_1" enable-background="new 0 0 68 68" height="512" viewBox="0 0 68 68" width="512" xmlns="http://www.w3.org/2000/svg"><g><g><path d="m27.578 7.74805h5.08252c.55225 0 1-.44775 1-1s-.44775-1-1-1h-5.08252c-.55225 0-1 .44775-1 1s.44776 1 1 1z"/><path d="m23.0448 61.5835h9.06592c.55225 0 1-.44775 1-1s-.44775-1-1-1h-9.06592c-.55225 0-1 .44775-1 1s.44775 1 1 1z"/><path d="m10.15466 51.63428c.55225 0 1-.44775 1-1v-39.13428h32.84619v5.14404c0 .55225.44775 1 1 1s1-.44775 1-1c.00051-1.20312-.00156 3.69071.00452-10.66406 0-2.18931-1.79042-3.97998-3.98743-3.97998h-.00256-28.87781-.0022c-2.09032 0-3.98071 1.71935-3.98071 3.98291v44.65137c0 .55224.44776 1 1 1zm31.86072-47.63428c1.05655 0 1.98547.86496 1.98547 1.98291v3.51709h-32.84552v-3.52002c0-1.09063.89327-1.97998 1.98224-1.97998z"/><path d="m33.7489 27.19629c.389.38607 1.02279.38834 1.41406-.00684l4.1792-4.21826c.38623-.38965.38623-1.01758 0-1.40723l-4.1792-4.21826c-.38867-.39258-1.02148-.39453-1.41406-.00684-.39258.38867-.39551 1.02197-.00684 1.41406l3.48193 3.51465-3.48193 3.51465c-.38867.3921-.38574 1.0254.00684 1.41407z"/><path d="m21.40613 17.33887c-.39209-.38965-1.02588-.38672-1.41406.00684l-4.17871 4.21826c-.38623.38965-.38623 1.01758 0 1.40723l4.17871 4.21826c.38841.39228 1.02119.39577 1.41406.00684.39258-.38867.39551-1.02197.00684-1.41406l-3.48145-3.51465 3.48145-3.51465c.38867-.3921.38574-1.0254-.00684-1.41407z"/><path d="m29.18982 14.51318-5.86963 14.77051c-.2041.51318.04688 1.09473.56006 1.29834.51038.20374 1.09349-.0444 1.29834-.56006l5.86963-14.77051c.2041-.51318-.04688-1.09473-.56006-1.29834-.51514-.20654-1.09473.04688-1.29834.56006z"/><path d="m45.00537 33.03998c-2.92999 0-5.31 2.38-5.31 5.31 0 2.95758 2.41145 5.31 5.31 5.31 2.8859 0 5.29999-2.34753 5.29999-5.31 0-2.93-2.38001-5.31-5.29999-5.31zm1 8.46002v-3.81c0-.54999-.45001-1-1-1-.56 0-1 .45001-1 1v3.82001c-1.34003-.41998-2.31-1.67999-2.31-3.16003 0-1.81995 1.47998-3.31 3.31-3.31 1.82001 0 3.29999 1.49005 3.29999 3.31 0 1.48004-.96997 2.73004-2.29999 3.15002z"/><path d="m57.95538 35.19-2.46002-.28003c-.19-.57996-.42999-1.14996-.71997-1.69995l1.43994-2.04004c.29004-.38995.24005-.94-.09998-1.27997l-2.87-2.85999c-.35999-.36005-.92999-.40002-1.33002-.08002l-1.92998 1.55c-.54999-.28003-1.12-.51001-1.70996-.69l-.41003-2.46997c-.08002-.48004-.5-.83002-.98999-.83002h-4.04999c-.51001 0-.94.38-1 .89001l-.27002 2.46998c-.59003.19-1.15002.42999-1.69.71002l-2.04999-1.45002c-.40002-.28003-.94-.23999-1.28003.10999l-2.85999 2.85999c-.35999.36005-.39001.93005-.07001 1.33002l1.54004 1.94c-.28003.54999-.51001 1.12-.69 1.71002l-2.46002.40997c-.47998.09003-.84003.5-.84003.98999v4.05005c0 .50995.39001.92999.89001.98999l2.46002.27997c.19.59003.44 1.16003.71997 1.70001l-1.44 2.03003c-.27997.39996-.23999.93994.11005 1.28998l2.85999 2.85999c.35999.35999.92999.39001 1.33002.07001l1.94-1.53998c.54999.26996 1.10999.5 1.69995.67999l.41003 2.46997c.07996.48999.5.84003.98999.84003h.88v2.20996h-33.85003c-.54999 0-1 .45001-1 1 0 .15491 0 6.86147 0 6.60999 0 2.19 1.79004 3.98004 3.98004 3.98004h28.88c2.19995 0 3.98999-1.79004 3.98999-3.98004 0-.48891 0-10.30378 0-9.81995h1.16998c.51001 0 .94-.38 1-.89001l.28003-2.46997c.57996-.19 1.14996-.43005 1.69-.71002l2.03998 1.44995c.40002.28003.94.23004 1.28998-.10999l2.85004-2.87c.35999-.35999.38995-.92999.07001-1.31995l-1.54004-1.94c.28003-.56.51001-1.13.69-1.71002l2.46002-.41998c.47998-.08002.83997-.5.83997-.98004v-4.04999c.00001-.51002-.38-.94001-.88995-.99zm-13.95001 26.82996c0 1.09003-.89001 1.98004-1.98999 1.98004h-28.88c-1.09003 0-1.98004-.89001-1.98004-1.98004 0-.21471 0-5.71267 0-5.60999h32.85004v5.60999zm12.83997-22.63996-2.25995.38c-.40002.07001-.71002.35999-.81.76001-.20001.83997-.53003 1.64996-.97003 2.41998-.21002.34998-.17999.79999.08002 1.12l1.39001 1.76001-1.62006 1.64001-1.87994-1.34001c-.32001-.22998-.76001-.23999-1.10004-.02997-.72998.44995-1.52997.78998-2.38 1-.40997.09998-.70996.44995-.76001.85999l-.25 2.25c-.84246 0-1.47705 0-2.32001 0l-.37994-2.27002c-.06-.39001-.36005-.71002-.75-.79999-.84003-.21002-1.65002-.53998-2.40002-.97998-.35999-.21002-.81-.18005-1.13.07996l-1.77003 1.40001-1.63-1.63 1.32001-1.84998c.21262-.30131.25049-.74578.04004-1.12-.45001-.73004-.80005-1.54004-1.02002-2.40002-.09998-.40002-.44-.70001-.84998-.73999l-2.24006-.26001v-2.29999l2.26001-.38c.40002-.07001.72003-.37.81-.76001.20001-.84998.53003-1.65997.98004-2.40002.20996-.35999.19-.81-.07001-1.13995l-1.41003-1.77003 1.63-1.63 1.87 1.33002c.32001.22998.76001.25 1.10004.03998.72998-.45001 1.53998-.78998 2.39996-1.01001.40002-.09998.69-.44.73999-.84998l.25-2.25h2.32001l.38 2.26001c.07001.39996.36005.71997.75.81.85004.20001 1.66003.52997 2.41003.97998.35999.21002.81.17999 1.13-.08002l1.75995-1.40997 1.63 1.64001-1.31995 1.85999c-.20987.29715-.25291.73146-.04004 1.10999.46002.75.79999 1.56 1.01001 2.39001.09998.39996.44.70001.85999.75l2.23999.25v2.30999z"/></g></g></svg>
