<svg id="Capa_1" enable-background="new 0 0 512 512" height="512" viewBox="0 0 512 512" width="512" xmlns="http://www.w3.org/2000/svg"><path d="m368.314 269.968c-11.337 11.337-66.535 66.538-78.839 78.842-7.811 7.811-20.476 7.809-28.285 0-7.811-7.811-7.811-20.475 0-28.285l44.526-44.525h-148.383c-11.046 0-20-8.954-20-20s8.954-20 20-20h148.383l-44.525-44.524c-7.811-7.811-7.811-20.475 0-28.285s20.475-7.811 28.285 0c10.873 10.874 68.184 68.186 78.821 78.824 7.64 7.822 7.568 20.222.017 27.953zm143.686-121.596v215.256c0 68.38-46.371 103.106-49.378 107.367-26.44 26.443-61.598 41.005-98.994 41.005h-215.256c-37.396 0-72.554-14.563-98.995-41.006-2.972-4.212-49.377-38.979-49.377-107.366v-215.256c0-68.38 46.371-103.106 49.378-107.367 26.44-26.442 61.598-41.005 98.994-41.005h215.256c37.396 0 72.554 14.563 98.995 41.006 2.972 4.212 49.377 38.979 49.377 107.366zm-40 0c0-50.109-34.621-74.853-37.662-79.082 0-.001 0-.001 0-.001-18.887-18.888-43.999-29.289-70.71-29.289h-215.256c-26.711 0-51.823 10.401-70.71 29.289-3.151 4.382-37.662 28.708-37.662 79.083v215.256c0 50.109 34.621 74.853 37.662 79.082 18.887 18.889 43.999 29.29 70.71 29.29h215.256c26.711 0 51.823-10.401 70.71-29.289 3.151-4.382 37.662-28.708 37.662-79.083z"/></svg>