<svg fill="#D4D4D4" id="Layer_1_1_" enable-background="new 0 0 64 64" height="512" viewBox="0 0 64 64" width="512" xmlns="http://www.w3.org/2000/svg"><path d="m49.467 19.846c.163.102.348.154.533.154s.37-.052.533-.154c1.517-.955 6.467-4.362 6.467-8.066 0-1.836-1.105-3.239-2.885-3.661-1.32-.309-2.964-.011-4.115 1.051-1.151-1.062-2.794-1.361-4.115-1.051-1.78.422-2.885 1.825-2.885 3.661 0 3.704 4.95 7.111 6.467 8.066zm-3.12-9.781c.179-.043.37-.064.567-.064.833 0 1.757.391 2.193 1.258.34.676 1.447.676 1.787 0 .539-1.071 1.824-1.417 2.76-1.193.502.119 1.346.5 1.346 1.714 0 1.984-2.584 4.405-5 6.027-2.416-1.622-5-4.043-5-6.027 0-1.214.844-1.595 1.347-1.715z"/><path d="m49 1h2v3h-2z"/><path d="m59 11h3v2h-3z"/><path d="m38 11h3v2h-3z"/><path d="m41.94 3.561h2v3h-2z" transform="matrix(.707 -.707 .707 .707 8.998 31.845)"/><path d="m55.561 4.061h3v2h-3z" transform="matrix(.707 -.707 .707 .707 13.134 41.83)"/><path d="m2.515 38.857 24.227-14.536 2.458 3.279c.312.416.89.522 1.33.248l7.177-4.485 1.462 2.192c.186.28.499.445.831.445.044 0 .088-.003.133-.009.378-.051.695-.312.816-.675l2-6c.102-.305.05-.641-.138-.901s-.49-.415-.811-.415h-6c-.369 0-.708.203-.882.528s-.155.72.05 1.026l1.429 2.143-6.348 3.967-2.449-3.264c-.307-.411-.875-.522-1.314-.258l-25 15zm38.098-18.857-.915 2.744-1.829-2.744z"/><path d="m24 62v-9c0-2.757-2.243-5-5-5h-1.54c.954-1.063 1.54-2.462 1.54-4 0-3.309-2.691-6-6-6s-6 2.691-6 6c0 1.538.586 2.937 1.54 4h-1.54c-2.757 0-5 2.243-5 5v9h2v-9c0-1.654 1.346-3 3-3h12c1.654 0 3 1.346 3 3v9zm-15-18c0-2.206 1.794-4 4-4s4 1.794 4 4-1.794 4-4 4-4-1.794-4-4z"/><path d="m18 54h2v8h-2z"/><path d="m6 54h2v8h-2z"/><path d="m55 54h2v8h-2z"/><path d="m61 62v-9c0-2.757-2.243-5-5-5h-1.54c.954-1.063 1.54-2.462 1.54-4 0-3.309-2.691-6-6-6s-6 2.691-6 6c0 1.538.586 2.937 1.54 4h-.124c-1.082 0-2.164.256-3.131.739l-4.318 2.159-6.574-2.817c-.308-.133-.664-.101-.944.084-.28.186-.449.499-.449.835v5c0 .4.238.762.606.919l7 3c.225.097.477.108.71.029l4.684-1.56v5.612h2v-7c0-.321-.154-.623-.416-.812s-.597-.241-.901-.137l-5.639 1.879-6.044-2.589v-2.824l5.606 2.402c.27.114.577.106.841-.024l4.733-2.366c.691-.346 1.464-.529 2.237-.529h10.583c1.654 0 3 1.346 3 3v9zm-15-18c0-2.206 1.794-4 4-4s4 1.794 4 4-1.794 4-4 4-4-1.794-4-4z"/></svg>
