<svg fill="#D4D4D4" id="Layer_1" enable-background="new 0 0 511.642 511.642" height="512" viewBox="0 0 511.642 511.642" width="512" xmlns="http://www.w3.org/2000/svg"><g><g><path d="m250.649 324.978-20-34.64c-2.547-4.413-8.007-6.204-12.673-4.16l-16.349 7.163c-4.878-3.619-10.118-6.65-15.674-9.064l-1.97-17.724c-.562-5.064-4.843-8.896-9.938-8.896h-39.999c-5.096 0-9.376 3.831-9.938 8.896l-1.97 17.724c-5.555 2.414-10.795 5.444-15.673 9.064l-16.35-7.163c-4.669-2.045-10.126-.252-12.673 4.16l-20 34.64c-2.548 4.413-1.37 10.036 2.734 13.055l14.379 10.578c-.679 6.006-.68 12.084.001 18.094l-14.38 10.579c-4.104 3.02-5.282 8.643-2.734 13.055l20 34.64c2.547 4.413 8.006 6.205 12.673 4.16l16.348-7.163c4.877 3.619 10.118 6.65 15.675 9.065l1.97 17.723c.562 5.064 4.843 8.896 9.938 8.896h39.999c5.096 0 9.376-3.831 9.938-8.896l1.97-17.724c5.555-2.414 10.795-5.445 15.673-9.064l16.35 7.163c4.671 2.047 10.126.253 12.673-4.16l20-34.64c2.548-4.413 1.37-10.036-2.734-13.055l-14.379-10.578c.679-6.004.679-12.09 0-18.095l14.379-10.578c4.104-3.019 5.282-8.642 2.734-13.055zm-37.725 21.083c1.493 7.604 1.493 15.59 0 23.194-.744 3.797.771 7.684 3.888 9.977l12.041 8.858-11.05 19.138-13.704-6.004c-3.547-1.554-7.675-.92-10.593 1.629-5.919 5.172-12.666 9.075-20.056 11.599-3.665 1.252-6.277 4.509-6.705 8.358l-1.65 14.849h-22.099l-1.65-14.848c-.428-3.85-3.04-7.106-6.705-8.358-7.394-2.526-14.141-6.428-20.056-11.598-2.917-2.55-7.045-3.185-10.594-1.631l-13.704 6.004-11.049-19.138 12.042-8.859c3.116-2.293 4.631-6.178 3.889-9.975-1.495-7.619-1.496-15.585-.002-23.195.744-3.797-.771-7.684-3.888-9.977l-12.041-8.858 11.049-19.138 13.705 6.004c3.549 1.556 7.676.92 10.593-1.629 5.919-5.172 12.666-9.074 20.055-11.599 3.666-1.252 6.278-4.508 6.706-8.358l1.65-14.849h22.099l1.65 14.849c.428 3.85 3.04 7.106 6.706 8.358 7.391 2.525 14.138 6.427 20.054 11.598 2.917 2.55 7.046 3.185 10.594 1.63l13.704-6.004 11.05 19.138-12.041 8.858c-3.117 2.294-4.632 6.179-3.888 9.977z"/><path d="m154.046 322.658c-19.299 0-35 15.701-35 35 1.76 46.368 68.247 46.356 69.999 0 0-19.299-15.7-35-34.999-35zm0 50c-8.271 0-15-6.729-15-15 .754-19.872 29.248-19.867 29.999 0 0 8.271-6.728 15-14.999 15z"/><path d="m466.806 44.899c-57.362-59.784-160.575-59.781-217.936 0-12.93 12.93-23.515 28.235-31.145 44.87l-.048-.108c-2.234-5.05-8.14-7.335-13.19-5.1-5.052 2.234-7.335 8.14-5.101 13.191l10.113 22.863c1.073 2.425 3.065 4.325 5.539 5.282 2.473.956 5.224.892 7.652-.182l22.862-10.114c5.051-2.234 7.334-8.14 5.1-13.19-2.235-5.05-8.136-7.335-13.191-5.1l-1.5.664c6.636-14.433 15.829-27.711 27.051-38.933 49.917-52.025 139.735-52.023 189.65 0 52.025 49.917 52.023 139.735 0 189.65-49.923 52.024-139.73 52.024-189.65-.001-23.488-23.487-53.218-38.499-85.976-43.415-32.096-4.815-64.273.403-93.046 15.092-4.919 2.511-6.871 8.535-4.359 13.454 2.511 4.919 8.535 6.87 13.453 4.36 51.924-26.508 114.532-16.603 155.785 24.653 57.366 59.78 160.573 59.783 217.935-.002 59.782-57.358 59.786-160.578.002-217.934z"/><path d="m261.236 186.545 20 34.641c2.547 4.413 8.005 6.204 12.674 4.16l16.347-7.163c4.877 3.619 10.119 6.651 15.675 9.065l1.97 17.723c.562 5.064 4.843 8.896 9.938 8.896h39.999c5.096 0 9.376-3.831 9.938-8.896l1.97-17.724c5.555-2.414 10.795-5.445 15.673-9.064l16.35 7.163c4.667 2.045 10.127.252 12.673-4.16l20-34.641c2.548-4.413 1.37-10.036-2.734-13.055l-14.379-10.578c.679-6.004.679-12.09 0-18.095l14.379-10.578c4.104-3.02 5.282-8.643 2.734-13.055l-20-34.64c-2.547-4.413-8.007-6.204-12.673-4.16l-16.349 7.163c-4.878-3.619-10.118-6.65-15.674-9.064l-1.97-17.724c-.562-5.064-4.843-8.896-9.938-8.896h-39.999c-5.096 0-9.376 3.831-9.938 8.896l-1.97 17.724c-5.554 2.414-10.795 5.445-15.673 9.064l-16.35-7.163c-4.669-2.045-10.125-.252-12.673 4.16l-20 34.64c-2.548 4.413-1.37 10.036 2.734 13.055l14.379 10.578c-.679 6.006-.68 12.085.001 18.094l-14.38 10.579c-4.104 3.02-5.282 8.642-2.734 13.055zm37.726-21.082c-1.495-7.619-1.496-15.584-.002-23.195.744-3.798-.771-7.684-3.888-9.977l-12.041-8.858 11.049-19.138 13.705 6.004c3.548 1.556 7.676.92 10.593-1.629 5.92-5.173 12.667-9.075 20.055-11.598 3.666-1.252 6.278-4.509 6.706-8.359l1.65-14.849h22.099l1.65 14.849c.428 3.85 3.04 7.106 6.706 8.358 7.391 2.525 14.138 6.427 20.054 11.598 2.918 2.55 7.045 3.185 10.594 1.63l13.704-6.004 11.05 19.138-12.041 8.858c-3.117 2.293-4.632 6.179-3.888 9.977 1.493 7.604 1.493 15.59 0 23.194-.744 3.797.771 7.684 3.888 9.977l12.041 8.858-11.049 19.138-13.705-6.004c-3.547-1.553-7.676-.919-10.593 1.629-5.919 5.172-12.666 9.075-20.056 11.599-3.665 1.252-6.277 4.509-6.705 8.358l-1.65 14.849h-22.099l-1.65-14.848c-.428-3.85-3.04-7.106-6.706-8.358-7.393-2.525-14.14-6.428-20.055-11.598-2.917-2.55-7.043-3.185-10.595-1.631l-13.703 6.004-11.049-19.138 12.042-8.859c3.117-2.292 4.631-6.177 3.889-9.975z"/><path d="m357.838 188.865c19.299 0 35-15.701 35-35-1.76-46.368-68.247-46.356-69.999 0 0 19.299 15.7 35 34.999 35zm0-50c8.271 0 15 6.729 15 15-.754 19.872-29.248 19.867-29.999 0 0-8.271 6.729-15 14.999-15z"/><path d="m302.384 390.909c-1.073-2.425-3.065-4.325-5.539-5.282-2.475-.957-5.227-.891-7.652.182l-22.862 10.114c-11.923 5.776-4.194 23.228 8.092 18.29l1.506-.666c-6.635 14.435-15.827 27.706-27.057 38.936-49.916 52.025-139.734 52.023-189.649 0-41.258-41.255-51.164-103.863-24.652-155.791 2.512-4.919.56-10.942-4.359-13.454-4.917-2.511-10.942-.56-13.453 4.359-30.376 57.806-18.589 133.35 28.321 179.028 74.534 75.902 205.666 52.209 249.081-44.866l.046.104c1.652 3.736 5.312 5.958 9.151 5.957 1.351 0 2.725-.275 4.039-.857 5.051-2.234 7.335-8.14 5.101-13.191z"/><path d="m52.157 265.758c2.258 0 4.53-.761 6.399-2.319 4.243-3.536 4.816-9.841 1.281-14.084-3.538-4.243-9.844-4.814-14.084-1.28l-.006.005c-4.243 3.536-4.813 9.839-1.278 14.082 1.978 2.372 4.822 3.596 7.688 3.596z"/></g></g></svg>
