<svg id="Layer_1" viewBox="0 0 73.65 73.65" xmlns="http://www.w3.org/2000/svg" data-name="Layer 1"><g transform="translate(-263.67 -263.17)"><path d="m323.76 263.17h-12.1l-11 8.27-11.35-8.27h-12.1a13.58 13.58 0 0 0 -9.25 3.64c-2.65 2.48 4.77 6.71 4.77 10.63l-9.09 2.06v9.34l2.91 11.94-2.91 10.38v9.84l8.36 1.85c0 4.08-6.55 8-3.69 10.48a13.54 13.54 0 0 0 8.9 3.33h12.3l11.49-8.5 10.45 8.52h12.28a13.53 13.53 0 0 0 9.16-3.56c2.71-2.48-3.47-8.59-3.47-12.55l7.88.45v-9.86l-2.88-11.16 2.91-11.13v-9.87l-7.88-2.63c0-3.92 6.21-7.06 3.56-9.54a13.58 13.58 0 0 0 -9.25-3.66z" fill="#004cba"/><path d="m333 266.82-32.5 25.41-32.5-25.41a13.56 13.56 0 0 0 -4.33 9.92v2.26l26.89 21-26.89 21v2.09a13.52 13.52 0 0 0 4.42 10l32.41-25.34 32.41 25.34a13.52 13.52 0 0 0 4.42-10v-2.09l-26.89-21 26.89-21v-2.24a13.56 13.56 0 0 0 -4.33-9.94z" fill="#fff"/><path d="m336.29 271.54a13.52 13.52 0 0 0 -1.92-3.24l-28.48 22.26-5.39 1.67-11.26-1.51-24.53-19.18a13.54 13.54 0 0 0 -1 4.52l24.59 19.22 2.26 4.72-2.06 9.86-23.74 18.57a13.7 13.7 0 0 0 1.95 3.22l29-22.68 4.79-1.2 11.1 1.39 24.64 19.27a13.27 13.27 0 0 0 1-4.49l-25.21-19.72-1.59-4.22 1.71-9.59z" fill="#f4002f"/></g><path d="m0 25.67h73.65v22.32h-73.65z" fill="#fff"/><path d="m25.67 0h22.32v73.65h-22.32z" fill="#fff"/><path d="m29.57 0h14.51v73.65h-14.51z" fill="#f4002f"/><path d="m0 29.46h73.65v14.73h-73.65z" fill="#f4002f"/></svg>