<?xml version="1.0" encoding="UTF-8"?>
<svg xmlns="http://www.w3.org/2000/svg" version="1.1" viewBox="0 0 1000 1000">
  <defs>
    <style>
      .cls-1 {
        fill: #fff;
      }

      .cls-2 {
        fill: #0d1321;
      }

      .cls-3 {
        opacity: .8;
      }
    </style>
  </defs>
  <!-- Generator: Adobe Illustrator 28.6.0, SVG Export Plug-In . SVG Version: 1.1.0 Build 92)  -->
  <g>
    <g id="Calque_1">
      <rect class="cls-2" y="0" width="1000" height="1000" rx="100" ry="100"/>
      <g id="test_8">
        <g class="cls-3">
          <path id="SVGID" class="cls-1" d="M708.4,412c8.4,3.3,2.6,11.9-10.8,16.5-476,164.1-280.4,246.1,68.5,300.7,17.2,2.7,16.5.3,21,17.9,1.9,7.2-62.8,20-164.9,35.4-459,69.3-476.7-227-20.6-355.5,53.2-15.1,91.1-21.2,106.8-15Z"/>
        </g>
        <path id="SVGID-2" data-name="SVGID" class="cls-1" d="M560.9,792.8l-33.6-98.3c-13.2-38.5-44.6-63.8-79.4-63.8h0c-88.3,0-167.8,64.1-200.8,162.1h0c-24.3,0-40.8-29.3-31.7-56.2L394.9,207.1h19l179.2,528.7c9.3,27.2-7.6,57-32.2,57h0ZM430.6,403.6c-.1-.3-.2-.5-.2-.8-14.8-48.5-37.8-48.5-52.5,0-.1.3-.2.5-.2.8h0c-28.1,85.2,24.5,177.4,101.2,177.4h0c4.5,0,7.6-5.4,6-10.5l-54.2-166.9Z"/>
      </g>
    </g>
  </g>
</svg>