<?xml version="1.0" encoding="utf-8"?>
<!-- Generator: Adobe Illustrator 25.2.0, SVG Export Plug-In . SVG Version: 6.00 Build 0)  -->
<svg version="1.1" xmlns="http://www.w3.org/2000/svg" xmlns:xlink="http://www.w3.org/1999/xlink" x="0px" y="0px"
	 viewBox="0 0 596 598.5" style="enable-background:new 0 0 596 598.5;" xml:space="preserve">
<style type="text/css">
	.st0{fill:#4428E2;}
	.st1{fill:none;stroke:#333366;stroke-width:0.25;stroke-linecap:round;stroke-linejoin:round;}
	.st2{fill:#319ED5;}
	.st3{fill:none;stroke:#333366;stroke-width:0.25;stroke-miterlimit:10;}
	.st4{fill:url(#SVGID_1_);}
	.st5{fill:url(#SVGID_2_);}
	.st6{fill:none;stroke:#000000;stroke-width:0.25;stroke-linecap:round;stroke-linejoin:round;}
	.st7{fill:url(#SVGID_3_);}
	.st8{fill:none;stroke:#000000;stroke-width:0.25;stroke-miterlimit:10;}
	.st9{fill:url(#SVGID_4_);}
	.st10{fill:url(#SVGID_5_);}
	.st11{fill:url(#SVGID_6_);}
	.st12{fill:url(#SVGID_7_);}
	.st13{fill:url(#SVGID_8_);}
	.st14{fill:url(#XMLID_9_);}
	.st15{fill:url(#XMLID_12_);}
	.st16{fill:url(#SVGID_9_);}
	.st17{opacity:0.15;}
	.st18{fill:url(#SVGID_10_);}
	.st19{fill:url(#SVGID_11_);}
	.st20{fill:url(#SVGID_12_);}
	.st21{display:none;}
	.st22{display:inline;}
	.st23{fill:url(#SVGID_13_);}
	.st24{fill:url(#SVGID_14_);}
	.st25{fill:url(#XMLID_41_);}
	.st26{fill:url(#XMLID_42_);}
	.st27{fill:#000044;}
	.st28{fill:#FFFFFF;}
	.st29{fill:url(#SVGID_15_);}
	.st30{fill:#6E55FF;}
	.st31{opacity:0.75;fill:#270284;}
	.st32{opacity:0.75;}
	.st33{fill:#333366;}
	.st34{opacity:0.2;fill:#333333;}
	.st35{fill:url(#SVGID_16_);}
	.st36{fill:url(#SVGID_17_);}
</style>
<g id="ailes_gauche_-_copie">
	<g id="XMLID_15_">
		<g>
			<path class="st0" d="M271.9,319.3c1.3,5.5,1.2,11.2,0.8,16.9c-0.4,6.1-1,12.2-1.8,18.3c-1.5,11.6-3,23.7-6.8,34.8
				c-3.3,9.6-8.7,18.2-16,25.3c-14.7,14.5-34.5,22.5-52.4,32.2c5.7-8.2,5.4-18.8,4.8-28.4c-0.6-10.3-1.8-21.1,1.6-31
				c-2.2,6.3-8,10.4-14,12.9c-14.2,6-31,6.1-46.1,4.7c-7.5-0.7-15-1.9-22.3-3.9c-5-1.4-10.6-3.1-14.7-6.6c4-1.5,7.8-3.8,11.6-5.8
				c5.9-3.2,11.7-6.6,17.3-10.4c3-2,7.7-4.7,9.2-8.2c1.2-2.7-2.2-2.6-3.9-2.6c-11.3-0.6-22.8,0.5-34.1,0.9
				c-5.9,0.2-11.8,0.4-17.7,0.3c-5-0.1-9.1-0.7-13.9-2.4c-18.4-6.8-33.9-19.5-47.2-33.7c6.2,2.4,12.5,2.3,18.7,0
				c5.2-1.9,9.9-4.7,14.8-7c5.5-2.6,11.3-4.6,17.4-5.5c11-1.6,22.2,0.4,33.2,0c-13-2.7-25.9-6-38-11.6
				c-10.4-4.8-19.8-11.3-27.9-19.3c-7.1-7-13.5-14.8-19.6-22.6c-6.7-8.7-13.1-17.9-17.8-27.9c-4-8.5-7.2-18.3-5.3-27.7
				c9.9,5,18.5,12,27.8,18c7.9,5.1,16.3,8.5,25.5,10.5c7.3,1.6,14.6,2.9,21.9,4.8c13.9,3.6,30.2,9.7,35.7,24.3
				c-1.7-9.6-5.9-18.4-10.5-26.9c-4.1-7.4-8.4-14.7-11.3-22.7c-3.2-8.7-4.6-18-5-27.2c-0.8-19.1,2.7-38.4,8.7-56.5
				c10.6,14.5,22,28,35.9,39.5c2.9,1.4,5.7,2.9,8.6,4.3c23,11.6,46.2,23.8,63.6,43.2c19.1,21.3,35.4,44.9,51.8,68.3
				c3.6,5.2,7.4,10.4,10.9,15.7C268.4,310.2,270.8,314.5,271.9,319.3z"/>
		</g>
		<g>
			<path class="st1" d="M130.9,174.5c-13.9-11.5-25.2-25-35.9-39.5c-6.1,18.1-9.6,37.4-8.7,56.5c0.4,9.2,1.8,18.5,5,27.2
				c2.9,8,7.2,15.3,11.3,22.7c4.7,8.5,8.9,17.3,10.5,26.9c-5.5-14.6-21.8-20.7-35.7-24.3c-7.2-1.9-14.6-3.2-21.9-4.8
				c-9.2-2-17.6-5.4-25.5-10.5c-9.3-5.9-17.9-13-27.8-18c-1.9,9.4,1.3,19.2,5.3,27.7c4.7,10,11,19.2,17.8,27.9
				c6.1,7.8,12.5,15.6,19.6,22.6c8.1,8,17.5,14.5,27.9,19.3c12,5.6,25,8.9,38,11.6c-11,0.4-22.2-1.6-33.2,0
				c-6,0.9-11.9,2.9-17.4,5.5c-4.9,2.3-9.7,5.2-14.8,7c-6.2,2.2-12.6,2.4-18.7,0c13.3,14.3,28.8,26.9,47.2,33.7
				c4.7,1.8,8.8,2.4,13.9,2.4c5.9,0.1,11.8-0.1,17.7-0.3c11.3-0.4,22.8-1.4,34.1-0.9c1.7,0.1,5.1,0,3.9,2.6
				c-1.5,3.5-6.3,6.2-9.2,8.2c-5.6,3.8-11.4,7.2-17.3,10.4c-3.7,2-7.5,4.4-11.6,5.8c4.1,3.4,9.7,5.2,14.7,6.6
				c7.3,2,14.8,3.2,22.3,3.9c15.1,1.3,31.9,1.3,46.1-4.7c5.9-2.5,11.8-6.5,14-12.9c-3.5,9.9-2.2,20.8-1.6,31
				c0.5,9.5,0.9,20.2-4.8,28.4c17.9-9.6,37.7-17.7,52.4-32.2c7.2-7.1,12.7-15.7,16-25.3c3.8-11.1,5.2-23.2,6.8-34.8
				c0.8-6.1,1.4-12.2,1.8-18.3c0.3-5.6,0.5-11.3-0.8-16.9c-1.1-4.8-3.5-9.1-6.2-13.3c-3.5-5.3-7.3-10.5-10.9-15.7
				c-16.4-23.4-32.7-47-51.8-68.3c-17.4-19.4-40.6-31.6-63.6-43.2C136.6,177.4,133.7,175.9,130.9,174.5z"/>
		</g>
	</g>
	<g id="ailes_gauche">
		<g id="XMLID_3_">
			<g>
				<path class="st2" d="M238.1,292c20.6,11,45.5,19.4,31.9,46.9c-4.2,8.4-6.7,18.8-12.2,26.2c-9.1,12.2-34.4,23.9-47,12.7
					c14.1-4.5,22-15.1,22.7-29.7c-7.1,6.9-18.4,3.4-27.1,3.6c-8.9,0.2-17.8,2.4-26.3,5.1c3.6-11.1,9.7-22.9,21.6-27.1
					c-27.6,6.6-55.4,11.2-77.7-9.4c18.1,0.3,33.4-26.6,52.7-15.7c-12.6-11.6-23.9-10-39.7-9.8c-12.7,0.2-27.9-2.1-34.2-14.9
					c5.8,3.2,22.3,2.1,24.5-6.1C135,261.1,138,262,153,258.8c12-2.6,17-1.6,29.1,1.8c10.6,3,19.4,5.3,28.2,11.7
					C219.5,279.1,228.1,286.6,238.1,292z"/>
			</g>
			<g>
				<path class="st3" d="M127.2,274c-2.2,8.2-18.7,9.3-24.5,6.1c6.3,12.8,21.5,15.1,34.2,14.9c15.9-0.2,27.2-1.8,39.7,9.8
					c-19.3-10.9-34.6,15.9-52.7,15.7c22.3,20.6,50.1,16,77.7,9.4c-12,4.1-18,16-21.6,27.1c8.5-2.7,17.4-4.9,26.3-5.1
					c8.7-0.2,20,3.3,27.1-3.6c-0.7,14.6-8.7,25.3-22.7,29.7c12.5,11.2,37.9-0.5,47-12.7c5.5-7.4,8-17.8,12.2-26.2
					c13.6-27.5-11.3-35.9-31.9-46.9c-10-5.4-18.6-12.9-27.8-19.7c-8.7-6.4-17.6-8.7-28.2-11.7c-12.1-3.5-17.1-4.5-29.1-1.8
					C138,262,135,261.1,127.2,274z"/>
			</g>
		</g>
	</g>
	<g id="XMLID_36_">
		<g>
			<linearGradient id="SVGID_1_" gradientUnits="userSpaceOnUse" x1="200.1954" y1="290.9116" x2="-575.8394" y2="290.9116">
				<stop  offset="4.102564e-02" style="stop-color:#4428E2"/>
				<stop  offset="0.3949" style="stop-color:#333366"/>
			</linearGradient>
			<path class="st4" d="M271.9,319.3c1.3,5.5,1.2,11.2,0.8,16.9c-0.4,6.1-1,12.2-1.8,18.3c-1.5,11.6-3,23.7-6.8,34.8
				c-3.3,9.6-8.7,18.2-16,25.3c-14.7,14.5-34.5,22.5-52.4,32.2c5.7-8.2,5.4-18.8,4.8-28.4c-0.6-10.3-1.8-21.1,1.6-31
				c-2.2,6.3-8,10.4-14,12.9c-14.2,6-31,6.1-46.1,4.7c-7.5-0.7-15-1.9-22.3-3.9c-5-1.4-10.6-3.1-14.7-6.6c4-1.5,7.8-3.8,11.6-5.8
				c5.9-3.2,11.7-6.6,17.3-10.4c3-2,7.7-4.7,9.2-8.2c1.2-2.7-2.2-2.6-3.9-2.6c-11.3-0.6-22.8,0.5-34.1,0.9
				c-5.9,0.2-11.8,0.4-17.7,0.3c-5-0.1-9.1-0.7-13.9-2.4c-18.4-6.8-33.9-19.5-47.2-33.7c6.2,2.4,12.5,2.3,18.7,0
				c5.2-1.9,9.9-4.7,14.8-7c5.5-2.6,11.3-4.6,17.4-5.5c11-1.6,22.2,0.4,33.2,0c-13-2.7-25.9-6-38-11.6
				c-10.4-4.8-19.8-11.3-27.9-19.3c-7.1-7-13.5-14.8-19.6-22.6c-6.7-8.7-13.1-17.9-17.8-27.9c-4-8.5-7.2-18.3-5.3-27.7
				c9.9,5,18.5,12,27.8,18c7.9,5.1,16.3,8.5,25.5,10.5c7.3,1.6,14.6,2.9,21.9,4.8c13.9,3.6,30.2,9.7,35.7,24.3
				c-1.7-9.6-5.9-18.4-10.5-26.9c-4.1-7.4-8.4-14.7-11.3-22.7c-3.2-8.7-4.6-18-5-27.2c-0.8-19.1,2.7-38.4,8.7-56.5
				c10.6,14.5,22,28,35.9,39.5c2.9,1.4,5.7,2.9,8.6,4.3c23,11.6,46.2,23.8,63.6,43.2c19.1,21.3,35.4,44.9,51.8,68.3
				c3.6,5.2,7.4,10.4,10.9,15.7C268.4,310.2,270.7,314.5,271.9,319.3z"/>
		</g>
		<g>
		</g>
	</g>
	<g id="XMLID_35_">
		<g>
			<linearGradient id="SVGID_2_" gradientUnits="userSpaceOnUse" x1="124.0011" y1="356.7489" x2="272.2506" y2="271.157">
				<stop  offset="4.102564e-02" style="stop-color:#4428E2"/>
				<stop  offset="0.5282" style="stop-color:#C9F4F9"/>
			</linearGradient>
			<path class="st5" d="M238.1,292c20.6,11,45.5,19.4,31.9,46.9c-4.2,8.4-6.7,18.8-12.2,26.2c-9.1,12.2-34.4,23.9-47,12.7
				c14.1-4.5,22-15.1,22.7-29.7c-7.1,6.9-18.4,3.4-27.1,3.6c-8.9,0.2-17.8,2.4-26.3,5.1c3.6-11.1,9.7-22.9,21.6-27.1
				c-27.6,6.6-55.4,11.2-77.7-9.4c18.1,0.3,33.4-26.6,52.7-15.7c-12.6-11.6-23.9-10-39.7-9.8c-12.7,0.2-27.9-2.1-34.2-14.9
				c5.8,3.2,22.3,2.1,24.5-6.1c7.8-12.8,10.8-11.9,25.8-15.2c12-2.6,17-1.6,29.1,1.8c10.6,3,19.4,5.3,28.2,11.7
				C219.4,279.1,228,286.6,238.1,292z"/>
		</g>
		<g>
		</g>
	</g>
</g>
<g id="ailes_d_roite">
	<g id="XMLID_22_">
		<g>
			<path class="st0" d="M535.5,181.4c-0.4,0.6-0.7,1.2-1,1.8C534.8,182.6,535.1,182,535.5,181.4z M535.7,181.1
				c6.4-9.8,18.7-13,29.8-13.7c13.9-0.8,20.9-3.4,30-14c-6.6,21.7-12.8,45.9-31.1,60.9c-17.4,14.4-36.6,28-59.1,32.4
				c8.8-1.6,15.4-4.3,24.8-1.5c9.6,2.8,16,10.9,25.7,13.2c-20,24-49.8,34.2-79.9,39.2c8.8,3.2,14.6,0.7,22.6,6.7
				c7.3,5.4,13.9,11.1,23.7,7.3c-11.2,18.4-43.9,20.5-62.8,18.6c-15.3-1.5-31.1-3.4-46.4-5.5c-17.2-2.4-32.6-13.9-46.6-23.5
				c-10.8-7.4-11.6-7.4-13.3-20.4c-1.1-8.6-2.5-17.3-3.9-25.9c-3-19.3,0.3-36.6,4.8-55.8c4.1-17.5,18.5-31.5,30.5-44.2
				c17.3-14.3,30.5-32.3,33-54.8c2.7-23.3,3.5-46.7,1.5-70c9.1,1.1,21.2,15.1,27.4,21.4c9.9,10,17,21.8,22.8,34.5
				c5.3,11.8,11.5,24.6,13,37.6c1.6,13.9-4.3,27.3-3.2,41.1c-0.4-21.8,6.6-45.1,23.5-59.6c17.7-15.2,44.1-25.8,41-54.4
				c9.8,21.8,16.8,45.9,17.4,69.9c0.3,12.7-3.3,23.5-8.6,34.9C547.8,165,541,172.3,535.7,181.1z"/>
			<path class="st0" d="M535.5,181.4c-0.4,0.6-0.7,1.2-1,1.8C534.7,182.6,535.1,182,535.5,181.4z"/>
		</g>
		<g>
			<path class="st6" d="M503,247.2c0.7-0.1,1.5-0.2,2.2-0.4c8.8-1.6,15.4-4.3,24.8-1.5c9.6,2.8,16,10.9,25.7,13.2
				c-20,24-49.8,34.2-79.9,39.2c8.8,3.2,14.6,0.7,22.6,6.7c7.3,5.4,13.9,11.1,23.7,7.3c-11.2,18.4-43.9,20.5-62.8,18.6
				c-15.3-1.5-31.1-3.4-46.4-5.5c-17.2-2.4-32.6-13.9-46.6-23.5c-10.8-7.4-11.6-7.4-13.3-20.4c-1.1-8.6-2.5-17.3-3.9-25.9
				c-3-19.3,0.3-36.6,4.8-55.8c4.1-17.5,18.5-31.5,30.5-44.2c17.3-14.3,30.5-32.3,33-54.8c2.7-23.3,3.5-46.7,1.5-70
				c9.1,1.1,21.2,15.1,27.4,21.4c9.9,10,17,21.8,22.8,34.5c5.3,11.8,11.5,24.6,13,37.6c1.6,13.9-4.3,27.3-3.2,41.1
				c-0.4-21.8,6.6-45.1,23.5-59.6c17.7-15.2,44.1-25.8,41-54.4c9.8,21.8,16.8,45.9,17.4,69.9c0.3,12.7-3.3,23.5-8.6,34.9
				c-4.4,9.6-11.2,16.9-16.5,25.7"/>
			<path class="st6" d="M535.7,181.1c6.4-9.8,18.7-13,29.8-13.7c13.9-0.8,20.9-3.4,30-14c-6.6,21.7-12.8,45.9-31.1,60.9
				c-17.4,14.4-36.6,28-59.1,32.4"/>
			<path class="st6" d="M535.5,181.4c-0.4,0.6-0.7,1.2-1,1.8C534.7,182.6,535.1,182,535.5,181.4z"/>
			<path class="st6" d="M535.5,181.4C535.5,181.4,535.5,181.3,535.5,181.4c0.1-0.2,0.1-0.2,0.2-0.3"/>
		</g>
	</g>
	<g id="XMLID_21_">
		<g>
			<path class="st2" d="M501.7,182.4c-1.2,18.1-3.4,36.6-15.8,50.9c-10.5,12.2-28,16-40.5,25.8c7.7-4.4,18.5,1.8,26.4,2.7
				c9.3,1,19.1-1.9,27.7-5.2c-13.3,18.8-44.3,27.4-66,30.1c5.6,2,12.3,2.5,18.2,3.8c4.5,1,11.4,5.3,16,4.3
				c-21.8,14.5-45.1,15-69.5,9.6c-5.7-1.3-10.4-4.5-15.6-7.3c-7.2-4-5.8-5.3-6.4-13.9c-0.8-12.9-3.6-23-7.7-35.3
				c-1.7-5.2-6.2-12.9-6.1-18.4c0-4.3,3.8-13.1,5.9-16.9c6.6-12,22.7-15.5,35.3-13.4c-4.4-17.6,12.6-29.6,24.6-38.4
				c12.4-9.1,26.7-23.9,28.1-40.1c8.8,15.4,10.1,40.8,7.5,58.1c-1.5,10.3-7,17.9-10.8,27.4c-2.3,5.8-5.4,11.3-8.1,16.9
				c-1.6,2.2-2.7,4.6-3.2,7.4c0.9-2.5,2-4.9,3.2-7.4c6.5-8.8,20.8-13.4,29.3-17C487.4,200.6,494.2,193.8,501.7,182.4z"/>
			<linearGradient id="SVGID_3_" gradientUnits="userSpaceOnUse" x1="346.9456" y1="289.6083" x2="557.4846" y2="152.8827">
				<stop  offset="0.64" style="stop-color:#319ED5"/>
				<stop  offset="0.9385" style="stop-color:#000000"/>
			</linearGradient>
			<path class="st7" d="M445.1,223.2c-1.2,2.4-2.2,4.9-3.2,7.4C442.4,227.8,443.5,225.4,445.1,223.2z"/>
		</g>
		<g>
			<path class="st8" d="M445.1,223.2c-1.2,2.4-2.2,4.9-3.2,7.4C442.4,227.8,443.5,225.4,445.1,223.2z"/>
			<path class="st8" d="M445.1,223.2c6.5-8.8,20.8-13.4,29.3-17c13-5.6,19.8-12.4,27.3-23.8c-1.2,18.1-3.4,36.6-15.8,50.9
				c-10.5,12.2-28,16-40.5,25.8c7.7-4.4,18.5,1.8,26.4,2.7c9.3,1,19.1-1.9,27.7-5.2c-13.3,18.8-44.3,27.4-66,30.1
				c5.6,2,12.3,2.5,18.2,3.8c4.5,1,11.4,5.3,16,4.3c-21.8,14.5-45.1,15-69.5,9.6c-5.7-1.3-10.4-4.5-15.6-7.3
				c-7.2-4-5.8-5.3-6.4-13.9c-0.8-12.9-3.6-23-7.7-35.3c-1.7-5.2-6.2-12.9-6.1-18.4c0-4.3,3.8-13.1,5.9-16.9
				c6.6-12,22.7-15.5,35.3-13.4c-4.4-17.6,12.6-29.6,24.6-38.4c12.4-9.1,26.7-23.9,28.1-40.1c8.8,15.4,10.1,40.8,7.5,58.1
				c-1.5,10.3-7,17.9-10.8,27.4C450.9,212.1,447.8,217.6,445.1,223.2z"/>
		</g>
	</g>
	<g id="XMLID_34_">
		<g>
			<linearGradient id="SVGID_4_" gradientUnits="userSpaceOnUse" x1="364.8321" y1="268.4463" x2="883.8535" y2="-207.6344">
				<stop  offset="4.102564e-02" style="stop-color:#4428E2"/>
				<stop  offset="0.3949" style="stop-color:#333366"/>
			</linearGradient>
			<path class="st9" d="M535.4,181.4c-0.4,0.6-0.7,1.2-1,1.8C534.7,182.6,535.1,182,535.4,181.4z M535.6,181.1
				c6.4-9.8,18.7-13,29.8-13.7c13.9-0.8,20.9-3.4,30-14c-6.6,21.7-12.8,45.9-31.1,60.9c-17.4,14.4-36.6,28-59.1,32.4
				c8.8-1.6,15.4-4.3,24.8-1.5c9.6,2.8,16,10.9,25.7,13.2c-20,24-49.8,34.2-79.9,39.2c8.8,3.2,14.6,0.7,22.6,6.7
				c7.3,5.4,13.9,11.1,23.7,7.3c-11.2,18.4-43.9,20.5-62.8,18.6c-15.3-1.5-31.1-3.4-46.4-5.5c-17.2-2.4-32.6-13.9-46.6-23.5
				c-10.8-7.4-11.6-7.4-13.3-20.4c-1.1-8.6-2.5-17.3-3.9-25.9c-3-19.3,0.3-36.6,4.8-55.8c4.1-17.5,18.5-31.5,30.5-44.2
				c17.3-14.3,30.5-32.3,33-54.8c2.7-23.3,3.5-46.7,1.5-70c9.1,1.1,21.2,15.1,27.4,21.4c9.9,10,17,21.8,22.8,34.5
				c5.3,11.8,11.5,24.6,13,37.6c1.6,13.9-4.3,27.3-3.2,41.1c-0.4-21.8,6.6-45.1,23.5-59.6c17.7-15.2,44.1-25.8,41-54.4
				c9.8,21.8,16.8,45.9,17.4,69.9c0.3,12.7-3.3,23.5-8.6,34.9C547.7,165,540.9,172.3,535.6,181.1z"/>
			<linearGradient id="SVGID_5_" gradientUnits="userSpaceOnUse" x1="399.6314" y1="306.3844" x2="918.6528" y2="-169.6963">
				<stop  offset="4.102564e-02" style="stop-color:#4428E2"/>
				<stop  offset="0.3949" style="stop-color:#333366"/>
			</linearGradient>
			<path class="st10" d="M535.4,181.4c-0.4,0.6-0.7,1.2-1,1.8C534.7,182.6,535,182,535.4,181.4z"/>
		</g>
		<g>
		</g>
	</g>
	<g id="XMLID_33_">
		<g>
			<linearGradient id="SVGID_6_" gradientUnits="userSpaceOnUse" x1="441.4753" y1="219.874" x2="562.0443" y2="150.2634">
				<stop  offset="0" style="stop-color:#C9F4F9"/>
				<stop  offset="0.5949" style="stop-color:#4428E2"/>
			</linearGradient>
			<path class="st11" d="M501.6,182.4c-1.2,18.1-3.4,36.6-15.8,50.9c-10.5,12.2-28,16-40.5,25.8c7.7-4.4,18.5,1.8,26.4,2.7
				c9.3,1,19.1-1.9,27.7-5.2c-13.3,18.8-44.3,27.4-66,30.1c5.6,2,12.3,2.5,18.2,3.8c4.5,1,11.4,5.3,16,4.3
				c-21.8,14.5-45.1,15-69.5,9.6c-5.7-1.3-10.4-4.5-15.6-7.3c-7.2-4-5.8-5.3-6.4-13.9c-0.8-12.9-3.6-23-7.7-35.3
				c-1.7-5.2-6.2-12.9-6.1-18.4c0-4.3,3.8-13.1,5.9-16.9c6.6-12,22.7-15.5,35.3-13.4c-4.4-17.6,12.6-29.6,24.6-38.4
				c12.4-9.1,26.7-23.9,28.1-40.1c8.8,15.4,10.1,40.8,7.5,58.1c-1.5,10.3-7,17.9-10.8,27.4c-2.3,5.8-5.4,11.3-8.1,16.9
				c-1.6,2.2-2.7,4.6-3.2,7.4c0.9-2.5,2-4.9,3.2-7.4c6.5-8.8,20.8-13.4,29.3-17C487.4,200.6,494.1,193.8,501.6,182.4z"/>
			<linearGradient id="SVGID_7_" gradientUnits="userSpaceOnUse" x1="443.4925" y1="226.8836" x2="446.225" y2="225.306">
				<stop  offset="0" style="stop-color:#C9F4F9"/>
				<stop  offset="0.5949" style="stop-color:#4428E2"/>
			</linearGradient>
			<path class="st12" d="M445.1,223.2c-1.2,2.4-2.2,4.9-3.2,7.4C442.4,227.8,443.5,225.4,445.1,223.2z"/>
		</g>
		<g>
		</g>
	</g>
</g>
<g id="queue_1_">
	<g id="XMLID_32_">
		<g>
			<linearGradient id="SVGID_8_" gradientUnits="userSpaceOnUse" x1="337.8535" y1="407.3069" x2="515.2169" y2="791.9055">
				<stop  offset="0.1487" style="stop-color:#4428E2"/>
				<stop  offset="0.4333" style="stop-color:#333366"/>
			</linearGradient>
			<path class="st13" d="M503.6,469.2c3.1,8.7,4.2,17.2,2.4,26.3c-1.7,8.8-5.1,17.4-5.8,26.4c-0.8-1-1.1-3.5-1.6-4.9
				c-0.6-1.7-1.4-3.3-2.2-4.9c-1.5-2.8-3.4-5.5-5.5-7.9c-3.8-4.4-8.3-8-12.9-11.5c-3.1-2.5-4.2-6.4-5-10.2
				c-1.3-5.9-2.5-11.8-3.8-17.7c2,9.5,2.3,19.2,1.6,28.9c-0.3,4.5-0.9,8.9-1.7,13.3c-0.7,4.3-1.4,8.8-3.1,12.8
				c-3.2,7.6-8.3,14-13.9,20.1c-2.8,3-5.5,6.1-8.7,8.8c-3.2,2.7-6.8,4.6-10.4,6.4c-8.3,4.2-16.5,8.4-24.8,12.6
				c2.9-3.3,6.3-6.1,8.9-9.6c3.1-4.2,5.2-8.9,6.5-13.9c2.6-10,1.9-20.9-1.4-30.7c0.4,1.5-1,4.7-1.5,6.3c-0.8,2.5-1.6,4.9-2.6,7.4
				c-1.9,5-4.2,9.9-6.6,14.6c-4,7.9-8.5,15.6-13.6,22.8c-2.7,3.7-5.6,7.1-9.2,9.9c-3.6,2.8-7.7,4.9-11.9,6.6
				c-9.1,3.7-18.7,6.3-28.5,7.6c-7.7,1-16.3,1.7-23.8-0.5c5.4-3.6,10.5-7.6,15.2-12c4.6-4.4,8.3-9.3,12-14.4
				c3.5-4.9,7.1-9.6,10.2-14.8c2.7-4.5,5.4-9.8,5.5-15.1c-4.6,6.6-10.2,12.6-16.3,17.8c-11.4,9.8-24.6,17.1-38.6,22.5
				c-7.3,2.8-14.8,5.1-22.4,7c-8,2-16.2,3.6-24,6.2c-0.7-1.1,1-1.3,1.8-1.6c1.3-0.5,2.5-1.1,3.7-1.7c2.3-1.2,4.6-2.4,6.8-3.7
				c18.9-11.5,32.5-29.8,40.8-50.1c2.1-5.2,3.9-10.6,5.4-16.1c0.7-2.7,1.4-5.5,2-8.3c0.4-1.7,1.9-6.7-1.7-5.6
				c-2.9,0.9-5.6,2.8-8.4,3.9c-3,1.2-6.1,1.9-9.2,2.8c-5.1,1.4-10.2,2.8-15.4,3.9c-2.7,0.6-5.4,1.1-8.1,1.7
				c-1.5,0.3-11.8,1.4-10.5-1.8c0.4-1.1,2.1-2.2,3-2.9c1.3-1.1,2.5-2.2,3.8-3.3c1.6-1.4,3.1-2.9,4.7-4.3c2.1-1.9,4.1-3.7,6.1-5.6
				c3-2.8,5.5-6.1,8-9.4c4.3-5.5,7.4-11.5,10.4-17.8c2.3-4.7,4.5-9.5,6.3-14.5c1.1-3,2.3-6,3-9.1c0.8-3.2,0.9-6.9,3.1-9.6
				c1.8-2.2,4.4-3.1,6.9-4.2c3.3-1.5,6.6-3,9.9-4.5c7.9-3.6,15.9-7.1,23.9-10.6c11.6-5.1,23.3-10.2,34.9-15.3c2.8-1.2,5.5-2.6,8.3-4
				c3.3-1.6,6.7-3.3,10-4.9c1.4-0.7,2.7-1.4,4.1-2c0.7-0.3,1.7-0.6,2.4-1.2c0.8-0.7,1.2-2,1.6-3c1.4-3,2.8-6.1,4.2-9.1
				c2.2-4.8,4.4-9.5,6.6-14.3c1.8-1.5,3.6-2.9,5.3-4.4c1.4-1.1,1.1-0.9,2.6,0.5c2,1.9,4.1,3.8,6.2,5.6c7.4,6.5,15,12.6,21.9,19.5
				c6.8,6.8,12.4,14.4,17.4,22.6c4.8,7.8,9.5,15.8,11.5,24.8c1.7,7.4,2.7,15.3,2.5,23c-3.8-7.9-10.1-13.8-17.5-18.4
				c-0.7-0.4-4.8-3.1-5.2-2.6c-0.6,0.8,2.7,3.8,3.4,4.5c3,3.4,5.9,6.8,8.6,10.4C496.8,451.8,500.5,460.4,503.6,469.2z"/>
		</g>
		<g>
		</g>
	</g>
	
		<linearGradient id="XMLID_9_" gradientUnits="userSpaceOnUse" x1="453.7514" y1="436.1703" x2="453.7514" y2="436.1703" gradientTransform="matrix(0.9962 -8.729548e-02 8.729548e-02 0.9962 -21.7069 29.5996)">
		<stop  offset="0" style="stop-color:#C9F4F9"/>
		<stop  offset="0.6667" style="stop-color:#4428E2"/>
	</linearGradient>
	<path id="XMLID_78_" class="st14" d="M468.4,424.5"/>
	<linearGradient id="XMLID_12_" gradientUnits="userSpaceOnUse" x1="359.7705" y1="387.3931" x2="437.159" y2="521.434">
		<stop  offset="0.3846" style="stop-color:#C9F4F9"/>
		<stop  offset="1" style="stop-color:#4428E2"/>
	</linearGradient>
	<path id="XMLID_77_" class="st15" d="M437,427.5c1.5,0.4,2.8,1.3,3.7,2.5l6.1,8.9c1.6,2.3,3.4,4.7,6.2,5.5
		c4.1,1.2,8.1,2.3,11.9,4.2c2.1,1.1,4.1,2.3,5.9,3.8c1,0.8,2,1.7,2.8,2.7c0.7,0.8,2.2,1.9,2.4,2.9c-1.5-6.2-2.1-13-3.4-19.5
		c-0.5-2.3-1.3-4.7-1.4-4.9c-0.8-2.6-2-6.8-3.9-11.5c-1.4-3.4-3.4-7.9-6.3-13c-1.8-2.8-3.7-5.7-5.5-8.5c-1.1-1.9-2.3-3.8-3.7-5.8
		c-2-2.9-3.8-5-5.3-6.7c-2.2-2.6-4.1-4.5-4.7-5.1c-5.6-5.7-18.3-12.3-33.5-12.9c-1.5-0.1-4.8-0.1-8.9,0.3c-18.4,2-32.6,12-42.4,21.9
		c-9.5,9.6-14.2,22.9-13.6,36.4c0.4,10.4-1.6,19.6-7.9,27.7c-6.3,8.1-8.3,8.1-15.2,10.9c-2.5,1,19.3,2.7,32.7-7.3
		c2.9-2.2,3.8-3.4,5.9-4.7c1-0.6,1-0.4,1.1,0c2.1,5-0.1,19.1-7.8,34.2c-6.2,12.2-12.5,17.5-11.3,18.8c1.8,2,17.5-6.1,29.5-20.2
		c9.7-11.3,11.7-18.7,13.8-21.8c1.2-1.8,1.6-2.4,2-1.3c1.7,3.9,6.9,21.4-1,39.1c-4.4,9.8-10.6,15.5-9.6,16.5
		c1.2,1.2,11.2-6,19.3-15.1c5.2-5.9,13.6-15.9,16.8-30.5c1.8-8.1,2.2-9.2,2.8-12.1c0.4-1.8,0.1-2.1,0.4-1.8
		c3.5,2.2,13.3,12.3,14.9,23.6c1.2,8.4-1.5,13.9-0.4,14.3c1.8,0.7,11.4-14.5,14.1-33.1c2.3-15.6-1.4-26.6-2.3-28.9
		C440.1,433,438.4,429.8,437,427.5z"/>
</g>
<g id="Corps">
	<g id="corps">
		<g id="XMLID_10_">
			<g>
				<radialGradient id="SVGID_9_" cx="259.9082" cy="364.0507" r="421.0883" gradientUnits="userSpaceOnUse">
					<stop  offset="0.2154" style="stop-color:#C9F4F9"/>
					<stop  offset="1" style="stop-color:#333366"/>
				</radialGradient>
				<path class="st16" d="M376.1,280c167.8,82.9-37.1,227-101.8,140.9C220.8,349.6,316.9,294.3,376.1,280z"/>
			</g>
			<g>
			</g>
		</g>
	</g>
	<g id="corps_-_copie">
		<g id="XMLID_25_" class="st17">
			<g>
				<path d="M376.1,280c167.8,82.9-37.1,227-101.8,140.9C220.8,349.6,316.9,294.3,376.1,280z"/>
			</g>
			<g>
			</g>
		</g>
	</g>
</g>
<g id="patte_gauche_1_">
	<g id="XMLID_2_">
		<g>
			<radialGradient id="SVGID_10_" cx="186.4735" cy="416.9485" r="86.4319" gradientUnits="userSpaceOnUse">
				<stop  offset="0.5231" style="stop-color:#333366"/>
				<stop  offset="1" style="stop-color:#000000"/>
			</radialGradient>
			<path class="st18" d="M201.6,415.3C201.6,415.4,201.6,415.4,201.6,415.3c-0.1-0.1-0.2-0.3-0.3-0.4c-1.1-1.6-2.5-3.3-3.3-5.1
				c-2.7-5.3,3.5-6.7,7.5-5.4c7.5,2.3,12.7,8.6,16.4,15.3c0.4,0.7,1.4,0.2,1.2-0.5c-1.5-4.8-3.3-9.5-4.7-14.2
				c-1-3.3-2.9-8.2-2.4-11.7c0.7-4.9,5.6-3.5,8.2-1c6.7,6.3,10.4,16.2,13.7,24.6c4.8,12.1,9.8,24.2,13.8,36.5
				c0.4,1.4,0.8,2.9,1.2,4.3c1.1,4.1,4,10.8,2.6,15.1c-2.9,9.4-16.7-10.2-19-13C224.4,445.4,212.2,430.9,201.6,415.3z"/>
		</g>
		<g>
		</g>
	</g>
	<g id="XMLID_11_">
		<g>
			<radialGradient id="SVGID_11_" cx="219.7681" cy="427.5281" r="41.7285" gradientUnits="userSpaceOnUse">
				<stop  offset="0.5231" style="stop-color:#333366"/>
				<stop  offset="1" style="stop-color:#000000"/>
			</radialGradient>
			<path class="st19" d="M282.6,426.7c2.1,2.1,4.1,4.2,6.1,6.3c-13.3,3.9-31.2,14.8-34.2,29.6L244,431.9c11.4-0.1,21.2-2.4,31.3-7.7
				C279.5,422,279.4,423.4,282.6,426.7z"/>
		</g>
		<g>
		</g>
	</g>
</g>
<g id="patte_droite">
	<g id="XMLID_69_">
		<linearGradient id="SVGID_12_" gradientUnits="userSpaceOnUse" x1="371.1971" y1="399.0342" x2="458.9453" y2="439.4855">
			<stop  offset="0" style="stop-color:#333366"/>
			<stop  offset="0.5026" style="stop-color:#000000"/>
		</linearGradient>
		<path class="st20" d="M382.8,374.6c-0.7-4.1-3.9-13.6-8.9-7.6c-3.1,3.7-2.2,10.6-2.3,16c-0.1,9.6,0,19.1,1,28.6
			c1,9.8,1.5,20.6,3,30.4c0.7,4.6,5.3,10.9,10.2,7.2c3.8-2.9,5-8.9,5.7-13.2c-0.1,0.4,0.6-2.7,0.8-3.7c0.1-0.3,0.1-0.6,0.2-0.9
			c3-12.3,6.2-22.6,7.3-35.3c0.7-7.7,3-23.7-2.2-30.3c-7.2-9.2-11,15.3-12.1,22.8c0,0.3-0.5,0.3-0.5,0L382.8,374.6z"/>
	</g>
</g>
<g id="tete_fond">
	<g id="XMLID_14_" class="st21">
		<g class="st22">
			<radialGradient id="SVGID_13_" cx="214.6667" cy="130.0638" r="190.3158" gradientUnits="userSpaceOnUse">
				<stop  offset="0.2154" style="stop-color:#319ED5"/>
				<stop  offset="1" style="stop-color:#333366"/>
			</radialGradient>
			<path class="st23" d="M287.5,203c1.1,3.5,0.5,5.4,0.3,7.7c-0.3,2.8-1.1,5.5-2.4,8.1c-1,2.1-2.2,4.1-2.4,6.4
				c-0.1,1.6,0.3,3.2,0.7,4.8c0.2,0.8,1,3,0.6,2.4l-0.7-1.3c-1.4-2.5-2.6-3.3-4.6-5.1s-4.2-3.6-5.5-5.9c-1.7-3.2-1.6-7.1-1.9-10.7
				c-0.1-1-0.1-2.1,0-3.1c0.1-1.5,0.3-2,1.1-3.5l0.4-0.9c-1.3,0.8-2.2,2-3,3.2s-1.4,2.7-2.1,4c-1.7,2.8-3,4.8-4.7,7
				c-0.5,0.7-0.9,1.3-1.7,2.2c-1.2,1.4-2.2,2-3.8,3.1c-0.5,0.3-1.6,1.1-1.6,0.6l0.1-0.6c0.1-0.4,0.2-0.8,0.3-1.2c1-2.6,2.3-7.8,2-12
				c-0.1-0.9-0.2-1.7-0.4-2.6c-0.1-1-0.1-1.5,0.1-3.3c0.3-2.9,1.2-5.8,3.4-7.5c0.5-0.4,2.4-2.2,2-1.8l-1.8,0.9
				c-3.5,0.9-7,1.7-10.5,0.9c-1.3-0.3-2.5-0.7-3.8-1.1c-2.9-1-5.7-2.3-8.3-3.8c-2.1-1.2-2.5-1.6-4.5-3.1c-0.6-0.5-1.5-1.4-2.5-2.4
				c-2.5-2.4-4.7-5.1-6.6-8c-2.8-4.2-1.6-2.5-3.6-5.5c0,0-2-3-2-3c-1.4-2-2.5-3.6-3.8-5.9c-1.1-2-2.2-5.8-3.2-9.1
				c-0.9-3.2-1.4-5.5-1.5-9.7c0-1.3,0-1.9,0.7-6.1l0.3-1.5c0.1-0.6,0.3-1.4,0.5-2l0.9-2.9c1.4-4.5,1.9-6.4,2.8-8.1
				c0.1-0.2,0.6-1,1.2-2c0,0,2.8-4.3,7.5-7.7c10.6-7.7,71.8-29.7,86.7-25.4c5.4,1.6,9.5,4.6,9.5,4.6c0.6,0.4,2.2,1.6,3.9,3.4
				c3.6,3.7,5.6,8.5,7.5,13.2c2.5,6.3,5.5,12.5,7.1,19.2c0.2,1,0.5,3.3,0.6,3.6c0.2,0.9-0.3,6.1-0.9,8.7c-0.4,3-0.8,6-1.2,9.1
				c-0.3,2.3-0.6,4.2-1.4,6.8c-0.5,1.8-0.7,2.3-1.1,3.4c-0.3,0.9-0.7,1.9-1,2.8c-0.9,2.3-2.4,4.1-4.1,5.9c-2.4,2.6-5.4,4.6-8.7,5.8
				H322c0.1,0.8,0.2,1.6,0.1,2.4c-0.2,2.1-1.2,4-2.1,6c-0.8,2-1.5,4.2-0.7,6.2c0.5,1.4,1.7,2.4,3,3.1c1.3,0.6,1.9,0.8,3.3,0.9
				c0,0,0.9,0.1,1.8,0.1l0.7,0c-1.5,3.4-4.8,6-8.4,7c-1.4,0.4-3,0.5-4.4,0.1c-1-0.3-1.8-0.8-2.7-1.3c-1.7-1-3.4-2-4.9-3.3
				s-2.8-2.9-3.4-4.8l-0.1-0.1c0,1.7,1,3.2,1.2,4.9c0.5,3.3-1.8,6.4-1.8,9.7c0,1.3,0.3,2.7,0.8,3.9c0.7,1.9,1.6,2.7,2.6,4.2
				c0.6,0.9,0.6,1,0.7,2.2l-0.1,0.6c-0.3,0.4-0.8,0.7-1.2,0.8c-0.3,0.1-0.6,0.1-0.9,0.1c-1.4,0.1-2.8-0.1-4.1-0.5
				c-1.3-0.4-2.4-0.7-3.7-1.4c-3.9-1.9-6-5-8.1-8.1c-0.9-1.3-1.2-1.7-1.6-3L287.5,203z"/>
		</g>
		<g class="st22">
		</g>
	</g>
	<g id="XMLID_1_">
		<g>
			<radialGradient id="SVGID_14_" cx="170.7983" cy="201.3094" r="360.2569" gradientUnits="userSpaceOnUse">
				<stop  offset="0.3897" style="stop-color:#319ED5"/>
				<stop  offset="1" style="stop-color:#333366"/>
			</radialGradient>
			<path class="st24" d="M306.9,347.1c2.1,6.6,1,10.1,0.5,14.4c-0.5,5.2-2.1,10.3-4.4,15.1c-1.9,3.8-4.2,7.6-4.5,11.9
				c-0.2,3,0.6,6,1.3,9c0.4,1.5,1.8,5.7,1.1,4.4l-1.4-2.4c-2.6-4.7-4.8-6.2-8.6-9.5s-7.9-6.6-10.2-11.1c-3.2-6-2.9-13.2-3.5-19.9
				c-0.2-1.9-0.1-3.9,0.1-5.8c0.3-2.7,0.6-3.8,2-6.5l0.7-1.7c-2.5,1.4-4.1,3.6-5.6,6c-1.5,2.4-2.5,5.1-4,7.5
				c-3.2,5.2-5.7,8.9-8.8,13.1c-1,1.4-1.7,2.4-3.2,4.1c-2.3,2.7-4.1,3.8-7.1,5.7c-0.9,0.6-2.9,2-3,1.2l0.2-1.1
				c0.1-0.8,0.4-1.5,0.6-2.3c1.9-4.9,4.4-14.6,3.7-22.4c-0.1-1.6-0.5-3.2-0.7-4.8c-0.2-1.8-0.1-2.8,0.2-6.2
				c0.5-5.3,2.2-10.8,6.4-13.9c1.5-1.1,3.9-3.5,3.9-3.5c0,0-0.1,0.1-0.1,0.1c-0.6,0.5-38.9,3.9-67.2-24.6
				c-27.5-27.6-36.5-76.5-20.1-106.6c0.9-1.6,1.6-2.8,2.2-3.7c0,0,5.3-8.1,13.9-14.4c104.7-76.2,161.8-47.4,161.8-47.4
				c8.3,5,21.3,14.2,32.7,29.6c19.6,26.5,21.2,53.7,21.5,59.3c0.5,12,1.8,41.9-18.8,61.5c-5.9,5.6-12,8.9-16.3,10.8h-0.8
				c0.1,1.5,0.3,3,0.2,4.5c-0.3,4-2.3,7.5-3.9,11.2c-1.6,3.6-2.8,7.8-1.4,11.5c1,2.6,3.2,4.6,5.6,5.8c2.5,1.2,3.5,1.5,6.2,1.7
				c0,0,1.6,0.2,3.4,0.2l1.2,0.1c-2.9,6.3-9,11.2-15.8,13.1c-2.7,0.7-5.5,1-8.2,0.2c-1.8-0.5-3.4-1.4-5-2.4
				c-3.2-1.8-6.4-3.7-9.2-6.1c-2.8-2.4-5.2-5.4-6.3-8.9l-0.3-0.1c0.1,3.2,1.8,6,2.2,9.2c0.9,6.1-3.3,11.9-3.4,18
				c0,2.5,0.6,5,1.5,7.4c1.3,3.5,3,5.1,4.9,7.9c1.1,1.6,1,1.8,1.3,4.1l-0.3,1.1c-0.6,0.7-1.4,1.3-2.3,1.6c-0.6,0.2-1.1,0.2-1.7,0.2
				c-2.6,0.1-5.2-0.2-7.7-1c-2.4-0.7-4.5-1.4-6.9-2.5c-7.3-3.6-11.1-9.4-15.1-15.2c-1.7-2.4-2.2-3.2-3-5.5L306.9,347.1z"/>
		</g>
		<g>
		</g>
	</g>
	<radialGradient id="XMLID_41_" cx="373.1719" cy="75.135" r="0" gradientUnits="userSpaceOnUse">
		<stop  offset="0.2154" style="stop-color:#319ED5"/>
		<stop  offset="1" style="stop-color:#333366"/>
	</radialGradient>
	<path id="XMLID_64_" class="st25" d="M373.2,75.1"/>
	<radialGradient id="XMLID_42_" cx="380.6398" cy="261.8334" r="0" gradientUnits="userSpaceOnUse">
		<stop  offset="0.2154" style="stop-color:#319ED5"/>
		<stop  offset="1" style="stop-color:#333366"/>
	</radialGradient>
	<path id="XMLID_63_" class="st26" d="M380.6,261.8"/>
</g>
<g id="paupiere_droite">
	<g id="XMLID_18_">
		<g>
			<path class="st27" d="M379.6,164.8c7.2,12.4,16.8,31,15.3,50.5c-1.3,12.7-17.1,20.2-28.7,17.7c-2.4-0.5-4.7-1.8-6.6-3.4
				c-15.6-13.1-18.6-35-19.5-55.8c0-11.1,4.9-20.1,14.2-26.2c10.7-7,17.7,6.5,24.5,15.8C379,163.9,379.3,164.3,379.6,164.8z"/>
		</g>
		<g>
		</g>
	</g>
	<g id="XMLID_124_">
		<g>
			<path class="st28" d="M378.7,165.7c6.8,11.9,15.8,29.8,14.4,48.7c-1.3,12.2-16.1,19.5-27.1,17.1c-2.3-0.5-4.4-1.7-6.2-3.2
				c-14.7-12.7-17.5-33.7-18.3-53.8c0-10.7,4.6-19.4,13.4-25.2c10.1-6.8,16.6,6.2,23,15.3C378.2,164.8,378.4,165.2,378.7,165.7z"/>
		</g>
		<g>
		</g>
	</g>
</g>
<g id="paupiere_gauche_-_copie">
	<g id="XMLID_115_">
		<g>
			<path class="st27" d="M295.7,245.3c12.8,43.1-66.3,58.3-80.8,8.4c-11.7-40.3-0.7-62.2,42.5-53.9c19.7,3.8,30.5,17.4,35.7,37.2
				C295.2,243.2,294.9,242.5,295.7,245.3z"/>
		</g>
		<g>
		</g>
	</g>
	<g id="XMLID_98_">
		<g>
			<path class="st28" d="M293.9,245.1c12.2,41.2-63.4,55.7-77.3,8.1c-11.2-38.6-0.6-59.5,40.6-51.6c18.9,3.6,29.1,16.6,34.1,35.6
				C293.3,243.1,293.1,242.4,293.9,245.1z"/>
		</g>
		<g>
		</g>
	</g>
</g>
<g id="oeil_gauche_-_copie">
	<g id="XMLID_135_">
		<g id="couleur_fond_oeil_gauche_1_">
			<g>
				<path class="st27" d="M271.6,210.6c8.3,12,21.6,35.7,18.5,52.3c-1.5,8.4-10.2,13.4-15.9,16c-7.8,3.5-14.6,1-21.9-4.7
					c-14.8-11.6-16.8-33.1-11.5-51.8C244.6,208.7,261,195.3,271.6,210.6z"/>
			</g>
			<g>
			</g>
		</g>
		<g id="couleur_fond_oeil_gauche_3_">
			<g>
				<radialGradient id="SVGID_15_" cx="270.8429" cy="218.9159" r="52.3671" gradientUnits="userSpaceOnUse">
					<stop  offset="0.1897" style="stop-color:#333366"/>
					<stop  offset="0.2198" style="stop-color:#333366"/>
					<stop  offset="0.4026" style="stop-color:#333366"/>
					<stop  offset="0.4538" style="stop-color:#34326D"/>
					<stop  offset="0.7242" style="stop-color:#3C2DA5"/>
					<stop  offset="1" style="stop-color:#4428E2"/>
				</radialGradient>
				<path class="st29" d="M271.4,211.3c8.1,11.7,21.1,34.9,18.1,51.1c-1.5,8.2-9.9,13.1-15.5,15.6c-7.7,3.4-14.3,1-21.4-4.6
					c-14.4-11.3-16.4-32.3-11.3-50.6C245,209.5,261.1,196.4,271.4,211.3z"/>
			</g>
			<g>
			</g>
		</g>
	</g>
	<g id="XMLID_132_">
		<g id="point_haut_droit_oeil_gauche_4_">
			<g>
				<path class="st27" d="M274.2,215.5c0.7,1.6-0.1,3.5-1.1,4.2c-1.9,1.2-4.7-1.4-5.5-2.3c-2-2.3-2.5-3.6-2.5-6.7
					c0-0.9,0.8-3.6,1.7-3.5C269.7,207.8,272.7,212,274.2,215.5z"/>
			</g>
			<g>
			</g>
		</g>
		<g id="point_haut_droit_oeil_gauche_1_">
			<g>
				<path class="st30" d="M273.8,215.4c0.6,1.5-0.1,3.2-1,3.8c-1.7,1.1-4.3-1.3-5-2.1c-1.8-2.1-2.3-3.3-2.3-6.1
					c0-0.8,0.8-3.3,1.6-3.2C269.6,208.3,272.4,212.1,273.8,215.4z"/>
			</g>
			<g>
			</g>
		</g>
	</g>
	<g id="XMLID_128_">
		<g id="point_haut_droit_oeil_gauche">
			<g>
				<path class="st27" d="M273.9,214.9c0.6,1.4,0.4,3.1-0.4,3.7c-1.3,1-4-1.7-4.7-2.4c-1.7-1.8-2.9-4.9-3.1-7.5
					c-0.1-0.7,0.5-1.3,1.2-1.1C269.1,208.1,272.6,211.8,273.9,214.9z"/>
			</g>
			<g>
			</g>
		</g>
		<g id="point_haut_droit_oeil_gauche_3_">
			<g>
				<path class="st28" d="M273.4,214.8c0.5,1.3,0.4,2.9-0.3,3.4c-1.1,0.9-3.5-1.7-4.1-2.3c-1.5-1.7-2.6-4.5-2.8-7
					c-0.1-0.7,0.4-1.2,1-1C269.1,208.5,272.3,211.9,273.4,214.8z"/>
			</g>
			<g>
			</g>
		</g>
	</g>
	<ellipse id="pupille_oeil_gauche_1_" class="st31" cx="264.1" cy="237" rx="7.9" ry="10"/>
	<g id="pupille_oeil_gauche" class="st32">
		<g>
			<path class="st33" d="M265.4,227c3.7,0,6.6,3.8,6.6,8.5s-3,8.5-6.6,8.5s-6.6-3.8-6.6-8.5S261.7,227,265.4,227z"/>
		</g>
		<g>
		</g>
	</g>
	<path id="ombre_oeil_gauche" class="st34" d="M288.8,225.1c-4.9-10.8-12.8-17.2-24.7-22.1c-7.9-3.3-17.3-4.6-27-4
		c-6.9,0.4-13.2,0.8-19.1,6.6c-9.9,9.7-8.8,25.5-2.2,47.7c3.8,12.6,31.5-17,42.6-19.7C274.2,229.9,302.3,254.6,288.8,225.1z"/>
	<g id="point_milieu_exte_oeil_gauche_1_">
		<g>
			<path class="st30" d="M265.9,226.8c0,0.3-0.3,0.5-0.6,0.6c-0.6,0.1-1.1-0.4-1.2-0.6c-0.3-0.5-0.3-0.7-0.1-1.1
				c0.1-0.1,0.5-0.5,0.7-0.4C265.4,225.4,265.8,226.1,265.9,226.8z"/>
		</g>
		<g>
		</g>
	</g>
	<g id="point_milieu_exte_oeil_gauche">
		<g>
			<path class="st28" d="M265.5,226.1c0,0.2-0.1,0.3-0.3,0.4c-0.3,0.1-0.6-0.3-0.7-0.4c-0.2-0.2-0.2-0.6-0.1-0.8
				c0-0.1,0.2-0.1,0.3-0.1C265,225.3,265.4,225.7,265.5,226.1z"/>
		</g>
		<g>
		</g>
	</g>
	<g id="point_bas_gauche_oeil_guache">
		<g>
			<path class="st28" d="M244.9,263.7c0.1,0.3,0,0.7-0.2,0.8c-0.4,0.2-1.1-0.3-1.3-0.4c-0.5-0.4-0.7-1-0.7-1.6
				c0-0.2,0.2-0.3,0.4-0.3C243.7,262.3,244.6,263,244.9,263.7z"/>
		</g>
		<g>
		</g>
	</g>
</g>
<g id="Oeil_droit">
	<g id="XMLID_144_">
		<g id="couleur_fond_oeil_droit_1_">
			<g>
				<path class="st27" d="M365.2,163.8c8.6,11.9,20.2,33.3,17.7,49.1c-1.2,7.4-9.6,13.6-16,15.5c-7.3,2.2-12.8-2.3-16.5-8.9
					c-6.7-11.7-9.5-27.4-9.7-40.9c-0.1-6.2,0-14.3,4.7-18.5C351,155,360.8,157.8,365.2,163.8z"/>
			</g>
			<g>
			</g>
		</g>
		<g id="couleur_fond_oeil_droit_2_">
			<g>
				<radialGradient id="SVGID_16_" cx="363.7311" cy="143.3238" r="127.8657" gradientUnits="userSpaceOnUse">
					<stop  offset="0.1436" style="stop-color:#333366"/>
					<stop  offset="0.1751" style="stop-color:#333366"/>
					<stop  offset="0.3667" style="stop-color:#333366"/>
					<stop  offset="0.4217" style="stop-color:#353277"/>
					<stop  offset="0.5304" style="stop-color:#3B2EA3"/>
					<stop  offset="0.6667" style="stop-color:#4428E2"/>
				</radialGradient>
				<path class="st35" d="M365,164.7c8.2,11.5,19.3,32.3,17,47.7c-1.1,7.2-9.1,13.2-15.2,15c-7,2.1-12.2-2.2-15.8-8.6
					c-6.4-11.3-9.1-26.6-9.3-39.7c-0.1-6-0.1-13.8,4.5-17.9C351.4,156.2,360.8,158.8,365,164.7z"/>
			</g>
			<g>
			</g>
		</g>
	</g>
	<path id="ombre_oieil_droit" class="st34" d="M387.4,182.6c-16.4-43.3-37.7-47.1-45.6-12.6c-3,13-0.2,9.1,2.2,30.9
		c1.4,13.4,2.8-9.2,14.5-12C375.3,184.8,395,202.7,387.4,182.6z"/>
	<g id="XMLID_141_">
		<g id="point_gros_haut_droit_oeil_droit_1_">
			<g>
				<path class="st27" d="M367.5,167.7c0.7,1.6,0,3.4-1,4.1c-1.8,1.2-4.5-1.4-5.2-2.3c-1.9-2.3-2.4-3.6-2.5-6.6
					c0-0.9,0.7-3.5,1.6-3.4C363.1,160,366,164.1,367.5,167.7z"/>
			</g>
			<g>
			</g>
		</g>
		<g id="point_gros_haut_droit_oeil_droit_4_">
			<g>
				<path class="st30" d="M367,167.5c0.6,1.5,0,3.1-0.9,3.8c-1.6,1.1-4-1.4-4.7-2.2c-1.7-2.2-2.2-3.4-2.3-6.1c0-0.8,0.6-3.3,1.4-3.1
					C363,160.4,365.7,164.3,367,167.5z"/>
			</g>
			<g>
			</g>
		</g>
	</g>
	<g id="XMLID_138_">
		<g id="point_gros_haut_droit_oeil_droit">
			<g>
				<path class="st27" d="M367,167c0.5,1.4,0.4,3.1-0.3,3.7c-1.2,0.9-3.7-1.8-4.3-2.5c-1.6-1.8-2.8-4.9-3-7.5
					c-0.1-0.7,0.4-1.3,1-1.1C362.4,160.2,365.7,163.9,367,167z"/>
			</g>
			<g>
			</g>
		</g>
		<g id="point_gros_haut_droit_oeil_droit_3_">
			<g>
				<path class="st28" d="M366.6,166.9c0.5,1.3,0.4,2.9-0.2,3.4c-1,0.8-3.4-1.7-3.9-2.4c-1.5-1.7-2.5-4.6-2.8-7
					c-0.1-0.7,0.4-1.2,0.9-1C362.5,160.5,365.5,164,366.6,166.9z"/>
			</g>
			<g>
			</g>
		</g>
	</g>
	<ellipse id="oeil_droit_pupille_exte" class="st31" cx="358.4" cy="193.9" rx="5.8" ry="8.6"/>
	<g id="oeil_droit_pupille_centre" class="st32">
		<g>
			<path class="st33" d="M359.5,187c2.6,0,4.8,2.8,4.8,6.3s-2.1,6.3-4.8,6.3s-4.8-2.8-4.8-6.3S356.8,187,359.5,187z"/>
		</g>
		<g>
		</g>
	</g>
	<g id="point_haut_droit_oeil_droit_1_">
		<g>
			<path class="st30" d="M358.3,168.1c0,0.2-0.2,0.4-0.5,0.4c-0.4,0.1-0.8-0.3-0.9-0.5c-0.2-0.3-0.2-0.5-0.1-0.8
				c0-0.1,0.4-0.4,0.5-0.3C357.9,167.1,358.2,167.6,358.3,168.1z"/>
		</g>
		<g>
		</g>
	</g>
	<g id="point_haut_droit_oeil_droit">
		<g>
			<path class="st28" d="M358.2,167.8c0,0.1-0.1,0.3-0.2,0.3c-0.3,0-0.5-0.3-0.6-0.4c-0.2-0.2-0.2-0.5-0.1-0.8
				c0-0.1,0.1-0.1,0.2-0.1C357.8,167,358.1,167.5,358.2,167.8z"/>
		</g>
		<g>
		</g>
	</g>
	<g id="point_bas_gauche_oieil_droit">
		<g>
			<path class="st28" d="M352.2,211.5c0.1,0.2,0,0.5-0.1,0.6c-0.3,0.2-0.8-0.2-0.9-0.3c-0.3-0.2-0.5-0.7-0.5-1.1
				c0-0.1,0.1-0.2,0.3-0.2C351.4,210.5,352,211,352.2,211.5z"/>
		</g>
		<g>
		</g>
	</g>
</g>
<g id="lunette_v1_-_copie">
	<g id="XMLID_105_">
		<path class="st27" d="M339.2,200.7c-9.5,1.5-35.9,9.5-34,19.1c0.7,3.7,6.9,2.4,8.3,1.3c7.3-5.3,11.8-7.9,20-10.2
			c2.6-1,8.5-1.7,9.9-4.3C345.6,203,342.2,200.7,339.2,200.7z"/>
	</g>
	<path class="st27" d="M420.3,169.5c-16.4-34.6-54.1-42-69.3-34.8c-23.8,11.3-31.3,45.2-16.8,75.7c14.5,30.5,45.5,46.1,69.3,34.8
		C427.3,233.9,434.8,200,420.3,169.5z M401.2,240.2c-21.6,10.3-49.9-3.9-63-31.6s-6.4-58.6,15.3-68.9c13.8-6.6,48.1,0.2,63,31.6
		C429.6,199.1,422.8,229.9,401.2,240.2z"/>
	<g>
		<path class="st27" d="M314.2,217.5c-32.2-86.5-154.7-26.8-113.4,58C231.5,337.7,343.9,292.2,314.2,217.5z M205.7,272.3
			c-37.5-77.3,74-131.6,103.3-52.8C336,287.5,233.6,329,205.7,272.3z"/>
	</g>
</g>
<g id="nez">
	<g id="XMLID_13_">
		<g>
			<path class="st27" d="M327.4,218.3c13.6-10,61.3,35.9,9.4,32.7C317.2,249.8,304.8,235,327.4,218.3z"/>
		</g>
		<g>
		</g>
	</g>
	<g id="XMLID_117_">
		<g>
			<path class="st33" d="M328.2,219.5c12.6-9.3,56.7,33.2,8.7,30.3C318.8,248.6,307.3,234.9,328.2,219.5z"/>
		</g>
		<g>
		</g>
	</g>
</g>
<g id="crete">
	<g id="XMLID_30_">
		<g>
			<linearGradient id="SVGID_17_" gradientUnits="userSpaceOnUse" x1="258.5563" y1="180.1499" x2="21.4975" y2="-172.6308">
				<stop  offset="0" style="stop-color:#4428E2"/>
				<stop  offset="0.5026" style="stop-color:#333366"/>
			</linearGradient>
			<path class="st36" d="M358.7,77.2c5.7,40-3.8,87.1-39.3,112.5c-0.4,0.3-1,0.1-1.1-0.5c-2.7-13.6-13.8-22.5-17.8-35.1
				c-0.2-0.8-1.4-0.6-1.4,0.2c-0.1,8.2,0.1,17.3-1.1,24.8c-0.1,0.6-0.8,0.8-1.2,0.4c-34.6-31.1-65,15.3-104.4-0.6
				c14.3,5.5-1.7,2-7.8,10.5c-7.1,9.9-12.7,22.7-15.4,37.5c-0.3,1.6-0.6,3.8-0.8,5.4c-1,6.8,0,16.7-0.2,15.8
				c-0.1-0.3-0.1-1.5-0.4-2.5c-5.9-30.7-19.6-25.6-52.4-26.8c-0.7,0-1-1.1-0.3-1.4l36.9-17.3c0.9-0.4,0.9-1.7,0-2
				c-6-2.1-11.2-6-14.9-11.2c-6-8.6-14.4-19.1-41.5-18.9c-0.8,0-1-1.1-0.3-1.4c41.8-16.4,62.4-1,87.1-11.9c0.7-0.3,0.5-1.3-0.2-1.4
				c-20.4-2.2-30.2,0.6-49.6-10.9c-21.2-12.6-24.3-15.7-49.6-11.7c-0.5,0.1-1-0.4-0.9-1c14.7-45.9,115-54.3,152.3-45.2
				c0.7,0.1,1.2-0.6,0.7-1.2c-9.8-12.6-40.6-11.3-52.3-26.4c-10.8-13.9-8.7-36.3-22-48.4c-0.5-0.4-0.2-1.2,0.4-1.3
				c38.2-2.5,79.6-2.9,112.5,19.6c24.3,16.7,58.1,47.7,59.2,79.9c0,0.7,0.9,1,1.3,0.4c6.6-10.2,19.2-19.5,23-30.1
				C357.6,76.3,358.6,76.4,358.7,77.2z"/>
		</g>
		<g>
		</g>
	</g>
</g>
</svg>
