<?xml version="1.0" encoding="utf-8"?>
<!-- Generator: Adobe Illustrator 26.0.2, SVG Export Plug-In . SVG Version: 6.00 Build 0)  -->
<svg version="1.1" id="Calque_1" xmlns="http://www.w3.org/2000/svg" xmlns:xlink="http://www.w3.org/1999/xlink" x="0px" y="0px"
	 viewBox="0 0 1000 1000" style="enable-background:new 0 0 1000 1000;" xml:space="preserve">
<style type="text/css">
	.st0{opacity:0.8;}
</style>
<g id="test_8">
	<g class="st0">
		<g>
			<g>
				<g>
					<defs>
						<path id="SVGID_1_" d="M855.7,349.8c14.4,5.7,4.5,20.3-18.5,28.2C24.6,658.1,358.4,798.2,954.2,891.3
							c29.4,4.6,28.2,0.5,35.9,30.6c3.2,12.3-107.3,34.2-281.5,60.5c-783.6,118.4-813.8-387.6-35.2-607
							C764.3,349.6,828.9,339.2,855.7,349.8z"/>
					</defs>
					<use xlink:href="#SVGID_1_"  style="overflow:visible;fill:#FFFFFF;"/>
					<clipPath id="SVGID_00000031923404725742698930000016693847192563728024_">
						<use xlink:href="#SVGID_1_"  style="overflow:visible;"/>
					</clipPath>
				</g>
			</g>
		</g>
	</g>
	<g>
		<g>
			<g>
				<g>
					<defs>
						<path id="SVGID_00000023978599748036506880000006245405127414891701_" d="M604,1000l-57.3-167.8
							c-22.5-65.8-76.1-108.9-135.6-108.9l0,0c-150.8,0-286.5,109.5-342.8,276.7l0,0l0,0c-41.5,0-69.7-50.1-54.2-96L320.6,0H353
							l306,902.6C674.8,949.1,646.1,1000,604,1000L604,1000z M381.5,335.4c-0.2-0.5-0.3-0.9-0.4-1.4c-25.2-82.8-64.5-82.8-89.7,0
							c-0.2,0.5-0.3,0.9-0.4,1.4l0,0c-47.9,145.5,41.9,302.9,172.8,302.9l0,0c7.7,0,13-9.3,10.3-17.9L381.5,335.4z"/>
					</defs>
					<use xlink:href="#SVGID_00000023978599748036506880000006245405127414891701_"  style="overflow:visible;fill:#FFFFFF;"/>
					<clipPath id="SVGID_00000101814390670862127600000015287682325766767548_">
						<use xlink:href="#SVGID_00000023978599748036506880000006245405127414891701_"  style="overflow:visible;"/>
					</clipPath>
				</g>
			</g>
		</g>
	</g>
</g>
</svg>
