<?xml version="1.0" encoding="UTF-8"?>
<svg xmlns="http://www.w3.org/2000/svg" version="1.1" viewBox="0 0 1000 1000">
  <defs>
    <style>
      .cls-1 {
        fill: #fff;
      }

      .cls-2 {
        opacity: .8;
      }
    </style>
  </defs>
  <!-- Generator: Adobe Illustrator 28.6.0, SVG Export Plug-In . SVG Version: 1.1.0 Build 92)  -->
  <g>
    <g id="Calque_1">
      <g id="test_8">
        <g class="cls-2">
          <path id="SVGID" class="cls-1" d="M855.7,349.8c14.4,5.7,4.5,20.3-18.5,28.2-812.5,280.1-478.7,420.2,117,513.2,29.4,4.6,28.2.5,35.9,30.6,3.2,12.3-107.3,34.2-281.5,60.5-783.5,118.4-813.7-387.6-35.2-606.9,90.9-25.8,155.5-36.2,182.3-25.6Z"/>
        </g>
        <path id="SVGID-2" data-name="SVGID" class="cls-1" d="M604,999.9l-57.3-167.8c-22.5-65.8-76.1-108.9-135.6-108.9h0c-150.8,0-286.5,109.5-342.8,276.7h0c-41.5,0-69.7-50.1-54.2-96L320.6,0h32.4l306,902.5c15.8,46.5-12.9,97.4-55,97.4h0ZM381.5,335.4c-.2-.5-.3-.9-.4-1.4-25.2-82.8-64.5-82.8-89.7,0-.2.5-.3.9-.4,1.4h0c-47.9,145.5,41.9,302.9,172.8,302.9h0c7.7,0,13-9.3,10.3-17.9l-92.6-285Z"/>
      </g>
    </g>
  </g>
</svg>