<?xml version="1.0" encoding="utf-8"?>
<!-- Generator: Adobe Illustrator 26.0.2, SVG Export Plug-In . SVG Version: 6.00 Build 0)  -->
<svg version="1.1" id="Calque_1" xmlns="http://www.w3.org/2000/svg" xmlns:xlink="http://www.w3.org/1999/xlink" x="0px" y="0px"
	 viewBox="0 0 1000 1000" style="enable-background:new 0 0 1000 1000;" xml:space="preserve">
<g>
	<path d="M855.8,144.4c-75.3-75.3-156.2-26.7-206.4,23.9L172.5,644.8c-50.6,50.6-103.2,127.1-23.9,206.4
		c79.3,79.3,156.2,26.7,206.4-23.9l476.5-476.5C882.5,300.2,931.1,219.7,855.8,144.4z"/>
	<path d="M400.4,124.9l100.8,100.8L604,122.9c7.2-7.2,13.9-13.5,21.1-19.5C614.3,49.2,583.3,0.2,501.2,0.2
		c-82.5,0-113.1,49.4-123.9,103.6C384.9,110.2,392.4,116.9,400.4,124.9z"/>
	<path d="M604,874.3L501.2,771.5L400.4,872.7c-7.6,7.6-15.1,14.7-22.7,21.1c11.6,55.4,44.2,106,123.5,106
		c79.7,0,112.4-51,123.9-106.4C617.9,887.5,610.8,881.5,604,874.3z"/>
	<path d="M357.4,369.5H162.9C91.6,369.5,0,391.8,0,498.6C0,578.3,51,611,106.4,622.5C113.1,614.9,357.4,369.5,357.4,369.5z"/>
	<path d="M896.4,374.7c-6,7.2-251,253.4-251,253.4h191.6c71.3,0,162.9-16.7,162.9-129.1C1000,416.1,950.6,385.5,896.4,374.7z"/>
	<path d="M421.1,305.4l34.7-34.7L355,169.9C304.4,119.3,227.9,66.7,148.6,146c-58.2,58.2-45.4,114.7-14.3,161
		C143.8,306.2,421.1,305.4,421.1,305.4z"/>
	<path d="M581.3,691.8l-34.7,34.7l102.8,102.8c50.6,50.6,131.1,99.2,206.4,23.9c56.2-56.2,43.4-115.5,12.4-162.9
		C857.8,691,581.3,691.8,581.3,691.8z"/>
</g>
</svg>
