<?xml version="1.0" encoding="utf-8"?>
<!-- Generator: Adobe Illustrator 26.0.2, SVG Export Plug-In . SVG Version: 6.00 Build 0)  -->
<svg version="1.1" id="Calque_1" xmlns="http://www.w3.org/2000/svg" xmlns:xlink="http://www.w3.org/1999/xlink" x="0px" y="0px"
	 viewBox="0 0 1000 1000" style="enable-background:new 0 0 1000 1000;" xml:space="preserve">
<path d="M214.3,427.8c-18.9-18.9-39.2-6.7-51.8,6L42.8,553.4c-12.7,12.7-25.9,31.9-6,51.8c19.9,19.9,39.2,6.7,51.8-6l119.6-119.6
	C221,466.9,233.2,446.7,214.3,427.8z"/>
<path d="M100,422.9l25.3,25.3l25.8-25.8c1.8-1.8,3.5-3.4,5.3-4.9c-2.7-13.6-10.5-25.9-31.1-25.9c-20.7,0-28.4,12.4-31.1,26
	C96.1,419.2,98,420.9,100,422.9z"/>
<path d="M151.1,611l-25.8-25.8L100,610.6c-1.9,1.9-3.8,3.7-5.7,5.3c2.9,13.9,11.1,26.6,31,26.6c20,0,28.2-12.8,31.1-26.7
	C154.6,614.3,152.8,612.8,151.1,611z"/>
<path d="M89.2,484.3H40.4c-17.9,0-40.9,5.6-40.9,32.4c0,20,12.8,28.2,26.7,31.1C27.9,545.9,89.2,484.3,89.2,484.3z"/>
<path d="M224.5,485.6c-1.5,1.8-63,63.6-63,63.6h48.1c17.9,0,40.9-4.2,40.9-32.4C250.5,496,238.1,488.3,224.5,485.6z"/>
<path d="M105.2,468.2l8.7-8.7l-25.3-25.3c-12.7-12.7-31.9-25.9-51.8-6c-14.6,14.6-11.4,28.8-3.6,40.4
	C35.6,468.4,105.2,468.2,105.2,468.2z"/>
<path d="M145.4,565.2l-8.7,8.7l25.8,25.8c12.7,12.7,32.9,24.9,51.8,6c14.1-14.1,10.9-29,3.1-40.9C214.8,565,145.4,565.2,145.4,565.2
	z"/>
<path d="M752.7,433.5c-4.3,0-11.9,1.1-20.2,4.7c-10.8,4.7-16.6,8.3-19.5,13c-10.8-12.6-24.9-16.6-40.7-16.6
	c-46.5,0-79.7,39.3-79.7,95.2c0,46.9,25.2,81.5,60.9,81.5c10.8,0,20.5-4.3,32.1-15.1c9-8.3,13.3-13.7,13.3-18.7
	c0-3.6-2.5-6.1-6.1-6.1c-5,0-10.5,4.3-17.3,4.3c-14.8,0-24.9-22.7-24.9-56.2c0-33.5,13.3-56.2,33.5-56.2c13.3,0,23.4,10.1,23.4,27.4
	v105.3c0,11.5,10.8,14.8,30.6,14.8c19.5,0,27-3.6,27-14.8V445.1C765.3,437.9,760.6,433.5,752.7,433.5z"/>
<path d="M530.3,433.5c-14.1,0-28.8,5-41.8,15.1c-7.2,5.8-13.3,12.3-13.3,17.7c0,4.7,3.2,7.2,7.9,7.2c7.9,0,10.5-3.2,18-3.2
	c7.6,0,11.2,7.2,11.2,19.8v105.6c0,11.5,10.8,14.8,30.6,14.8c19.5,0,27-3.6,27-14.8V480C570,452.7,553.7,433.5,530.3,433.5z"/>
<path d="M429,433.5c-14.8,0-28.1,5-41.1,15.1c-7.2,5.8-13.3,12.3-13.3,17.7c0,4.7,3.2,7.2,7.9,7.2c7.9,0,10.5-3.2,17.3-3.2
	c6.8,0,10.5,7.2,10.5,19.8v105.6c0,11.5,10.8,14.8,30.6,14.8c19.5,0,27-3.6,27-14.8V480C467.9,452.7,451.7,433.5,429,433.5z"/>
<path d="M353.3,433.5c-5.4,0-11.9,1.1-20.2,4.7c-18,7.9-24.9,13-24.9,24.2v133.4c0,11.5,10.8,14.8,30.6,14.8c19.5,0,27-3.6,27-14.8
	V445.1C365.9,437.9,361.2,433.5,353.3,433.5z"/>
<path d="M987.4,561.9c-14.4,3.6-18.7,4.7-23.8,4.7c-6.1,0-8.3-1.8-8.3-8.3v-90.1h32.8c8.7,0,11.9-3.2,11.9-11.9
	c0-7.2-3.2-10.8-11.9-10.8h-32.8v-35c0-10.8-3.6-15.1-11.2-15.1c-7.2,0-17.3,6.5-38.9,24.9c-22,18.7-34.6,31-34.6,39.7
	c0,5,3.6,8.3,9.4,8.3h17.7v97.3c0,28.5,14.1,45.1,38.6,45.1c16.2,0,28.1-6.1,42.2-16.9c13-10.1,21.3-18,21.3-24.9
	C999.6,563,995.3,559.7,987.4,561.9z"/>
<path d="M841.4,357.5c-2.9,0-11.9,1.1-20.2,4.7c-18,7.6-24.9,13-24.9,24.2v209.4c0,11.5,10.8,14.8,30.6,14.8c19.5,0,27-3.6,27-14.8
	V369C854,361.8,849.3,357.5,841.4,357.5z"/>
</svg>
