<?xml version="1.0" encoding="UTF-8"?>
<svg fill="#D4D4D4" xmlns="http://www.w3.org/2000/svg" viewBox="0 0 512 512" width="512" height="512"><g id="Outline"><path d="M32,168H16V136A40.045,40.045,0,0,1,56,96H328V80H312a8,8,0,0,1-5.657-13.657l48-48a8,8,0,0,1,11.314,0l48,48A8,8,0,0,1,408,80H392V96h32a40.045,40.045,0,0,1,40,40V296H448V136a24.028,24.028,0,0,0-24-24H392V256H376V72a8,8,0,0,1,8-8h4.687L360,35.313,331.313,64H336a8,8,0,0,1,8,8V264H328V112H56a24.028,24.028,0,0,0-24,24ZM56,416H189.247l-19.2,64H152v16H328V480H309.953l-10.29-34.3-15.326,4.6,8.911,29.7h-106.5l19.2-64H264V400H56a24.028,24.028,0,0,1-24-24v-8H256V352H32V184H16V376A40.045,40.045,0,0,0,56,416ZM296,280V152H264V336H56V320H88V256a8,8,0,0,1,8-8h48a8,8,0,0,1,8,8v64h16V200a8,8,0,0,1,8-8h48a8,8,0,0,1,8,8V320h16V144a8,8,0,0,1,8-8h48a8,8,0,0,1,8,8V280ZM136,264H104v56h32Zm80-56H184V320h32ZM56,128v16H72V128Zm48,0H88v16h16Zm16,0v16h16V128ZM488.967,455.033A24.167,24.167,0,0,1,496,472a23.978,23.978,0,0,1-24,24,24.5,24.5,0,0,1-16.967-7.033L416.74,450.675a96.074,96.074,0,1,1,33.935-33.935ZM448,368a80,80,0,1,0-80,80A80.091,80.091,0,0,0,448,368Zm29.652,98.348-36.387-36.389a96.887,96.887,0,0,1-11.306,11.306l36.389,36.387a7.993,7.993,0,1,0,11.3-11.3ZM432,368a64,64,0,1,1-64-64A64.072,64.072,0,0,1,432,368Zm-16,0a48,48,0,1,0-48,48A48.053,48.053,0,0,0,416,368Zm-80,0h16a16.019,16.019,0,0,1,16-16V336A32.036,32.036,0,0,0,336,368ZM440,64h16a48.053,48.053,0,0,0-48-48V32A32.036,32.036,0,0,1,440,64Z"/></g></svg>
