<svg fill="#D4D4D4" height="426pt" viewBox="0 -21 426.66667 426" width="426pt" xmlns="http://www.w3.org/2000/svg"><path d="m373.332031.332031h-320c-29.441406.035157-53.2968748 23.894531-53.332031 53.335938v277.332031c.03125 29.441406 23.890625 53.300781 53.332031 53.332031h320c29.445313-.03125 53.304688-23.890625 53.335938-53.332031v-277.332031c-.035157-29.441407-23.894531-53.300781-53.335938-53.335938zm-320 21.335938h320c17.667969.019531 31.980469 14.332031 32 32v10.664062h-384v-10.664062c.019531-17.667969 14.335938-31.980469 32-32zm320 341.332031h-320c-17.664062-.019531-31.980469-14.335938-32-32v-245.332031h384v245.332031c-.019531 17.664062-14.332031 31.980469-32 32zm0 0"/><path d="m224 258.296875v-33.964844c0-5.890625-4.777344-10.664062-10.667969-10.664062s-10.664062 4.773437-10.664062 10.664062v33.964844c-14.695313 5.195313-23.507813 20.222656-20.875 35.582031 2.636719 15.359375 15.957031 26.589844 31.539062 26.589844 15.585938 0 28.90625-11.230469 31.539063-26.589844 2.636718-15.359375-6.175782-30.386718-20.871094-35.582031zm-10.667969 40.703125c-5.890625 0-10.664062-4.777344-10.664062-10.667969s4.773437-10.664062 10.664062-10.664062 10.667969 4.773437 10.667969 10.664062c-.007812 5.890625-4.777344 10.660157-10.667969 10.667969zm0 0"/><path d="m213.332031 128.332031c-76.546875.089844-138.578125 62.121094-138.664062 138.667969-.003907 2.828125 1.121093 5.542969 3.121093 7.542969 2 2.003906 4.714844 3.125 7.542969 3.125h21.335938c5.890625 0 10.664062-4.777344 10.664062-10.667969s-4.773437-10.667969-10.664062-10.667969h-10.1875c2.246093-23.621093 11.664062-45.996093 26.984375-64.117187l6.902344 6.898437c4.179687 4.058594 10.847656 4.007813 14.96875-.113281 4.121093-4.121094 4.171874-10.785156.113281-14.96875l-6.894531-6.894531c18.183593-15.132813 40.546874-24.359375 64.113281-26.453125v9.648437c0 5.890625 4.773437 10.667969 10.664062 10.667969s10.667969-4.777344 10.667969-10.667969v-9.648437c23.5625 2.09375 45.929688 11.320312 64.113281 26.453125l-6.894531 6.894531c-2.761719 2.679688-3.867188 6.640625-2.890625 10.363281.976563 3.726563 3.886719 6.632813 7.609375 7.609375 3.722656.976563 7.683594-.125 10.363281-2.890625l6.898438-6.898437c15.324219 18.121094 24.738281 40.496094 26.988281 64.117187h-10.1875c-5.890625 0-10.667969 4.777344-10.667969 10.667969s4.777344 10.667969 10.667969 10.667969h21.332031c2.832031 0 5.542969-1.121094 7.546875-3.125 2-2 3.121094-4.714844 3.121094-7.542969-.089844-76.546875-62.121094-138.578125-138.667969-138.667969zm0 0"/></svg>
